<svg width="16" height="12" viewBox="0 0 16 12" fill="none" xmlns="http://www.w3.org/2000/svg">
<path d="M1.0396 7.056C1.0396 5.288 2.1956 4.268 3.6576 4.268C5.2216 4.268 6.1226 5.441 6.1226 7.311C6.1226 9.181 5.2216 10.354 3.6576 10.354C2.1956 10.354 1.0396 9.334 1.0396 7.566V7.056ZM1.0736 9.385C1.3966 10.32 2.3656 11.204 3.7936 11.204C5.9866 11.204 7.2106 9.487 7.2106 7.311C7.2106 5.135 5.9866 3.418 3.7936 3.418C2.3656 3.418 1.3966 4.319 1.0736 5.254V0.289999H0.0366016V11H0.818602L1.0736 9.385ZM14.5482 8.365C14.2422 9.674 13.4092 10.354 12.0492 10.354C10.5872 10.354 9.44823 9.198 9.38023 7.566H15.4492V7.09C15.4492 5.084 14.2932 3.418 11.9812 3.418C9.89023 3.418 8.30923 5.084 8.30923 7.413C8.30923 9.691 9.90723 11.204 12.0492 11.204C13.8512 11.204 15.0752 10.167 15.4322 8.484L14.5482 8.365ZM9.39723 6.835C9.56723 5.458 10.5192 4.234 11.9812 4.234C13.5452 4.234 14.3102 5.475 14.3442 6.835H9.39723Z" fill="white"/>
</svg>
