<svg width="11" height="15" viewBox="0 0 11 15" fill="none" xmlns="http://www.w3.org/2000/svg">
<path d="M0.49168 3.622V11H1.52868V3.622H0.49168ZM0.45768 1.667H1.56268V0.289999H0.45768V1.667ZM9.41097 5.917C9.41097 5.407 9.27497 4.965 9.01997 4.591C9.37697 4.387 9.97197 4.234 10.533 4.234V3.231C9.75097 3.231 9.10497 3.639 8.71397 4.234C8.18697 3.707 7.37097 3.418 6.41897 3.418C4.68497 3.418 3.44397 4.37 3.44397 5.917C3.44397 6.733 3.78397 7.396 4.36197 7.821C3.76697 8.127 3.32497 8.552 3.32497 9.181C3.32497 9.725 3.59697 10.184 4.27697 10.388C3.34197 10.592 2.71297 11.153 2.71297 12.054C2.71297 13.414 4.32797 14.094 6.28297 14.094C8.44197 14.094 10.431 13.414 10.431 11.595C10.431 10.456 9.59797 9.64 8.01697 9.64H5.16097C4.44697 9.64 4.19197 9.402 4.19197 8.943C4.19197 8.552 4.49797 8.246 4.80397 8.093C5.26297 8.314 5.80697 8.416 6.41897 8.416C8.15297 8.416 9.41097 7.464 9.41097 5.917ZM3.76697 11.799C3.76697 10.847 4.54897 10.558 5.44997 10.558H7.77897C8.76497 10.558 9.42797 10.847 9.42797 11.629C9.42797 12.904 8.11897 13.346 6.28297 13.346C4.80397 13.346 3.76697 12.887 3.76697 11.799ZM8.35697 5.934C8.35697 7.056 7.64297 7.719 6.41897 7.719C5.22897 7.719 4.51497 7.056 4.51497 5.934C4.51497 4.795 5.22897 4.132 6.41897 4.132C7.64297 4.132 8.35697 4.795 8.35697 5.934Z" fill="white"/>
</svg>
