<svg width="15" height="15" viewBox="0 0 15 15" fill="none" xmlns="http://www.w3.org/2000/svg">
<path d="M0.653265 2.21406L2.46431 0.404721C2.59206 0.276407 2.7439 0.174598 2.91112 0.105143C3.07834 0.0356885 3.25763 -4.33963e-05 3.4387 3.9553e-08C3.80771 3.9553e-08 4.15461 0.144543 4.41479 0.404721L6.36357 2.3535C6.49188 2.48125 6.59369 2.6331 6.66315 2.80032C6.7326 2.96753 6.76833 3.14683 6.76829 3.32789C6.76829 3.6969 6.62375 4.04381 6.36357 4.30398L4.93854 5.72901C5.27211 6.46424 5.73587 7.1331 6.30745 7.7033C6.8776 8.27627 7.54639 8.74172 8.28174 9.07731L9.70677 7.65228C9.83452 7.52397 9.98636 7.42216 10.1536 7.35271C10.3208 7.28325 10.5001 7.24752 10.6812 7.24756C11.0502 7.24756 11.3971 7.39211 11.6572 7.65228L13.6077 9.59936C13.7362 9.72735 13.8381 9.87948 13.9076 10.047C13.977 10.2145 14.0127 10.3941 14.0125 10.5755C14.0125 10.9445 13.8679 11.2914 13.6077 11.5515L11.8001 13.3592C11.3852 13.7758 10.8121 14.0122 10.2237 14.0122C10.0996 14.0122 9.98055 14.002 9.86321 13.9816C7.57093 13.6041 5.29735 12.3848 3.4625 10.5516C1.62936 8.7202 0.411793 6.44832 0.0291786 4.14924C-0.0864553 3.44693 0.146514 2.72421 0.653265 2.21406Z" fill="white"/>
</svg>
