<svg width="10" height="8" viewBox="0 0 10 8" fill="none" xmlns="http://www.w3.org/2000/svg">
<path d="M9.29473 4.35355C9.48999 4.15829 9.48999 3.84171 9.29473 3.64645L6.11275 0.464466C5.91749 0.269204 5.60091 0.269204 5.40564 0.464466C5.21038 0.659728 5.21038 0.976311 5.40564 1.17157L8.23407 4L5.40564 6.82843C5.21038 7.02369 5.21038 7.34027 5.40564 7.53553C5.60091 7.7308 5.91749 7.7308 6.11275 7.53553L9.29473 4.35355ZM2.18557e-08 4.5C0.000490218 4.5 0.00100164 4.5 0.00153422 4.5C0.00206679 4.5 0.00262053 4.5 0.00319536 4.5C0.0037702 4.5 0.00436613 4.5 0.00498309 4.5C0.00560005 4.5 0.00623805 4.5 0.00689701 4.5C0.00755598 4.5 0.00823591 4.5 0.00893675 4.5C0.00963759 4.5 0.0103593 4.5 0.0111019 4.5C0.0118445 4.5 0.0126079 4.5 0.0133921 4.5C0.0141764 4.5 0.0149813 4.5 0.0158071 4.5C0.0166328 4.5 0.0174792 4.5 0.0183463 4.5C0.0192133 4.5 0.0201011 4.5 0.0210094 4.5C0.0219177 4.5 0.0228466 4.5 0.023796 4.5C0.0247455 4.5 0.0257154 4.5 0.0267058 4.5C0.0276962 4.5 0.0287071 4.5 0.0297384 4.5C0.0307697 4.5 0.0318214 4.5 0.0328934 4.5C0.0339654 4.5 0.0350578 4.5 0.0361704 4.5C0.037283 4.5 0.0384159 4.5 0.039569 4.5C0.0407221 4.5 0.0418954 4.5 0.0430889 4.5C0.0442823 4.5 0.045496 4.5 0.0467296 4.5C0.0479633 4.5 0.0492171 4.5 0.0504909 4.5C0.0517647 4.5 0.0530585 4.5 0.0543723 4.5C0.055686 4.5 0.0570197 4.5 0.0583734 4.5C0.059727 4.5 0.0611005 4.5 0.0624938 4.5C0.0638872 4.5 0.0653003 4.5 0.0667332 4.5C0.0681662 4.5 0.0696189 4.5 0.0710913 4.5C0.0725637 4.5 0.0740558 4.5 0.0755675 4.5C0.0770793 4.5 0.0786106 4.5 0.0801616 4.5C0.0817125 4.5 0.0832831 4.5 0.0848731 4.5C0.0864632 4.5 0.0880727 4.5 0.0897017 4.5C0.0913307 4.5 0.0929792 4.5 0.094647 4.5C0.0963149 4.5 0.0980021 4.5 0.0997086 4.5C0.101415 4.5 0.103141 4.5 0.104886 4.5C0.106631 4.5 0.108396 4.5 0.110179 4.5C0.111963 4.5 0.113766 4.5 0.115588 4.5C0.117409 4.5 0.119251 4.5 0.121111 4.5C0.122971 4.5 0.12485 4.5 0.126748 4.5C0.128646 4.5 0.130563 4.5 0.1325 4.5C0.134436 4.5 0.136391 4.5 0.138365 4.5C0.140339 4.5 0.142332 4.5 0.144343 4.5C0.146355 4.5 0.148385 4.5 0.150435 4.5C0.152484 4.5 0.154552 4.5 0.156638 4.5C0.158725 4.5 0.16083 4.5 0.162954 4.5C0.165078 4.5 0.167221 4.5 0.169382 4.5C0.171543 4.5 0.173723 4.5 0.175921 4.5C0.178119 4.5 0.180336 4.5 0.182571 4.5C0.184807 4.5 0.18706 4.5 0.189332 4.5C0.191604 4.5 0.193894 4.5 0.196203 4.5C0.198512 4.5 0.200839 4.5 0.203184 4.5C0.205529 4.5 0.207892 4.5 0.210274 4.5C0.212656 4.5 0.215056 4.5 0.217473 4.5C0.219891 4.5 0.222327 4.5 0.224782 4.5C0.227236 4.5 0.229708 4.5 0.232198 4.5C0.234688 4.5 0.237196 4.5 0.239722 4.5C0.242248 4.5 0.244792 4.5 0.247354 4.5C0.249916 4.5 0.252496 4.5 0.255093 4.5C0.257691 4.5 0.260306 4.5 0.262939 4.5C0.265572 4.5 0.268223 4.5 0.270892 4.5C0.27356 4.5 0.276246 4.5 0.27895 4.5C0.281654 4.5 0.284375 4.5 0.287114 4.5C0.289853 4.5 0.29261 4.5 0.295384 4.5C0.298158 4.5 0.300949 4.5 0.303758 4.5C0.306567 4.5 0.309393 4.5 0.312237 4.5C0.31508 4.5 0.317941 4.5 0.32082 4.5C0.323698 4.5 0.326594 4.5 0.329507 4.5C0.332419 4.5 0.335349 4.5 0.338297 4.5C0.341244 4.5 0.344208 4.5 0.34719 4.5C0.350171 4.5 0.35317 4.5 0.356186 4.5C0.359201 4.5 0.362234 4.5 0.365284 4.5C0.368333 4.5 0.3714 4.5 0.374484 4.5C0.377567 4.5 0.380668 4.5 0.383785 4.5C0.386902 4.5 0.390037 4.5 0.393188 4.5C0.396339 4.5 0.399506 4.5 0.402691 4.5C0.405875 4.5 0.409077 4.5 0.412294 4.5C0.415512 4.5 0.418747 4.5 0.421998 4.5C0.425249 4.5 0.428517 4.5 0.431801 4.5C0.435085 4.5 0.438386 4.5 0.441704 4.5C0.445021 4.5 0.448355 4.5 0.451705 4.5C0.455055 4.5 0.458421 4.5 0.461804 4.5C0.465187 4.5 0.468587 4.5 0.472002 4.5C0.475418 4.5 0.478849 4.5 0.482298 4.5C0.485746 4.5 0.48921 4.5 0.49269 4.5C0.496171 4.5 0.499667 4.5 0.50318 4.5C0.506693 4.5 0.510221 4.5 0.513766 4.5C0.517311 4.5 0.520872 4.5 0.524449 4.5C0.528025 4.5 0.531618 4.5 0.535227 4.5C0.538835 4.5 0.54246 4.5 0.5461 4.5C0.549741 4.5 0.553397 4.5 0.557069 4.5C0.560741 4.5 0.564429 4.5 0.568132 4.5C0.571836 4.5 0.575555 4.5 0.57929 4.5C0.583025 4.5 0.586775 4.5 0.590541 4.5C0.594307 4.5 0.598089 4.5 0.601886 4.5C0.605683 4.5 0.609496 4.5 0.613324 4.5C0.617152 4.5 0.620996 4.5 0.624855 4.5C0.628714 4.5 0.632588 4.5 0.636478 4.5C0.640368 4.5 0.644273 4.5 0.648193 4.5C0.652114 4.5 0.656049 4.5 0.66 4.5C0.663951 4.5 0.667917 4.5 0.671898 4.5C0.675879 4.5 0.679876 4.5 0.683887 4.5C0.687898 4.5 0.691925 4.5 0.695966 4.5C0.700008 4.5 0.704064 4.5 0.708136 4.5C0.712207 4.5 0.716294 4.5 0.720395 4.5C0.724496 4.5 0.728612 4.5 0.732743 4.5C0.736874 4.5 0.74102 4.5 0.745181 4.5C0.749341 4.5 0.753517 4.5 0.757707 4.5C0.761897 4.5 0.766102 4.5 0.770321 4.5C0.77454 4.5 0.778774 4.5 0.783023 4.5C0.787272 4.5 0.791535 4.5 0.795812 4.5C0.80009 4.5 0.804382 4.5 0.808689 4.5C0.812995 4.5 0.817316 4.5 0.821652 4.5C0.825987 4.5 0.830337 4.5 0.834701 4.5C0.839066 4.5 0.843444 4.5 0.847837 4.5C0.852229 4.5 0.856636 4.5 0.861058 4.5C0.865479 4.5 0.869914 4.5 0.874364 4.5C0.878813 4.5 0.883277 4.5 0.887754 4.5C0.892232 4.5 0.896724 4.5 0.901229 4.5C0.905735 4.5 0.910255 4.5 0.914789 4.5C0.919322 4.5 0.92387 4.5 0.928431 4.5C0.932993 4.5 0.937568 4.5 0.942157 4.5C0.946747 4.5 0.95135 4.5 0.955966 4.5C0.960583 4.5 0.965214 4.5 0.969858 4.5C0.974502 4.5 0.97916 4.5 0.983831 4.5C0.988503 4.5 0.993188 4.5 0.997887 4.5C1.00259 4.5 1.0073 4.5 1.01202 4.5C1.01675 4.5 1.02149 4.5 1.02624 4.5C1.03099 4.5 1.03576 4.5 1.04054 4.5C1.04532 4.5 1.05011 4.5 1.05492 4.5C1.05972 4.5 1.06454 4.5 1.06938 4.5C1.07421 4.5 1.07905 4.5 1.08391 4.5C1.08877 4.5 1.09364 4.5 1.09853 4.5C1.10342 4.5 1.10831 4.5 1.11323 4.5C1.11814 4.5 1.12306 4.5 1.128 4.5C1.13294 4.5 1.13789 4.5 1.14285 4.5C1.14781 4.5 1.15279 4.5 1.15778 4.5C1.16277 4.5 1.16777 4.5 1.17279 4.5C1.1778 4.5 1.18283 4.5 1.18787 4.5C1.19291 4.5 1.19796 4.5 1.20303 4.5C1.20809 4.5 1.21317 4.5 1.21826 4.5C1.22336 4.5 1.22846 4.5 1.23358 4.5C1.23869 4.5 1.24382 4.5 1.24896 4.5C1.2541 4.5 1.25926 4.5 1.26442 4.5C1.26959 4.5 1.27477 4.5 1.27996 4.5C1.28515 4.5 1.29035 4.5 1.29557 4.5C1.30078 4.5 1.30601 4.5 1.31125 4.5C1.31649 4.5 1.32175 4.5 1.32701 4.5C1.33227 4.5 1.33755 4.5 1.34284 4.5C1.34813 4.5 1.35343 4.5 1.35874 4.5C1.36406 4.5 1.36938 4.5 1.37472 4.5C1.38005 4.5 1.3854 4.5 1.39076 4.5C1.39612 4.5 1.4015 4.5 1.40688 4.5C1.41227 4.5 1.41766 4.5 1.42307 4.5C1.42848 4.5 1.4339 4.5 1.43933 4.5C1.44476 4.5 1.45021 4.5 1.45566 4.5C1.46112 4.5 1.46658 4.5 1.47206 4.5C1.47754 4.5 1.48303 4.5 1.48853 4.5C1.49403 4.5 1.49955 4.5 1.50507 4.5C1.5106 4.5 1.51613 4.5 1.52168 4.5C1.52723 4.5 1.53279 4.5 1.53836 4.5C1.54393 4.5 1.54951 4.5 1.5551 4.5C1.56069 4.5 1.5663 4.5 1.57191 4.5C1.57753 4.5 1.58315 4.5 1.58879 4.5C1.59443 4.5 1.60008 4.5 1.60574 4.5C1.6114 4.5 1.61707 4.5 1.62275 4.5C1.62843 4.5 1.63412 4.5 1.63983 4.5C1.64553 4.5 1.65125 4.5 1.65697 4.5C1.6627 4.5 1.66844 4.5 1.67418 4.5C1.67993 4.5 1.68569 4.5 1.69146 4.5C1.69723 4.5 1.70301 4.5 1.7088 4.5C1.71459 4.5 1.72039 4.5 1.7262 4.5C1.73201 4.5 1.73784 4.5 1.74367 4.5C1.7495 4.5 1.75535 4.5 1.7612 4.5C1.76706 4.5 1.77292 4.5 1.7788 4.5C1.78467 4.5 1.79056 4.5 1.79645 4.5C1.80235 4.5 1.80825 4.5 1.81417 4.5C1.82009 4.5 1.82602 4.5 1.83195 4.5C1.83789 4.5 1.84384 4.5 1.8498 4.5C1.85575 4.5 1.86172 4.5 1.8677 4.5C1.87368 4.5 1.87967 4.5 1.88567 4.5C1.89166 4.5 1.89767 4.5 1.90369 4.5C1.90971 4.5 1.91574 4.5 1.92178 4.5C1.92781 4.5 1.93386 4.5 1.93992 4.5C1.94598 4.5 1.95205 4.5 1.95813 4.5C1.9642 4.5 1.97029 4.5 1.97639 4.5C1.98249 4.5 1.98859 4.5 1.99471 4.5C2.00083 4.5 2.00695 4.5 2.01309 4.5C2.01923 4.5 2.02537 4.5 2.03153 4.5C2.03768 4.5 2.04385 4.5 2.05002 4.5C2.0562 4.5 2.06238 4.5 2.06858 4.5C2.07477 4.5 2.08097 4.5 2.08719 4.5C2.0934 4.5 2.09962 4.5 2.10585 4.5C2.11208 4.5 2.11832 4.5 2.12457 4.5C2.13082 4.5 2.13708 4.5 2.14335 4.5C2.14962 4.5 2.15589 4.5 2.16218 4.5C2.16847 4.5 2.17476 4.5 2.18107 4.5C2.18737 4.5 2.19368 4.5 2.20001 4.5C2.20633 4.5 2.21266 4.5 2.219 4.5C2.22534 4.5 2.23169 4.5 2.23805 4.5C2.24441 4.5 2.25078 4.5 2.25715 4.5C2.26353 4.5 2.26991 4.5 2.27631 4.5C2.2827 4.5 2.2891 4.5 2.29551 4.5C2.30192 4.5 2.30834 4.5 2.31477 4.5C2.3212 4.5 2.32764 4.5 2.33408 4.5C2.34053 4.5 2.34698 4.5 2.35345 4.5C2.35991 4.5 2.36638 4.5 2.37286 4.5C2.37934 4.5 2.38583 4.5 2.39232 4.5C2.39882 4.5 2.40532 4.5 2.41184 4.5C2.41835 4.5 2.42487 4.5 2.4314 4.5C2.43793 4.5 2.44447 4.5 2.45101 4.5C2.45756 4.5 2.46411 4.5 2.47067 4.5C2.47724 4.5 2.48381 4.5 2.49039 4.5C2.49696 4.5 2.50355 4.5 2.51014 4.5C2.51674 4.5 2.52334 4.5 2.52995 4.5C2.53656 4.5 2.54318 4.5 2.54981 4.5C2.55643 4.5 2.56307 4.5 2.56971 4.5C2.57635 4.5 2.583 4.5 2.58966 4.5C2.59631 4.5 2.60298 4.5 2.60965 4.5C2.61632 4.5 2.623 4.5 2.62969 4.5C2.63638 4.5 2.64307 4.5 2.64978 4.5C2.65648 4.5 2.66319 4.5 2.66991 4.5C2.67663 4.5 2.68335 4.5 2.69008 4.5C2.69682 4.5 2.70356 4.5 2.71031 4.5C2.71705 4.5 2.72381 4.5 2.73057 4.5C2.73733 4.5 2.7441 4.5 2.75088 4.5C2.75766 4.5 2.76444 4.5 2.77123 4.5C2.77802 4.5 2.78482 4.5 2.79163 4.5C2.79843 4.5 2.80524 4.5 2.81206 4.5C2.81888 4.5 2.82571 4.5 2.83254 4.5C2.83938 4.5 2.84622 4.5 2.85307 4.5C2.85991 4.5 2.86677 4.5 2.87363 4.5C2.88049 4.5 2.88736 4.5 2.89423 4.5C2.90111 4.5 2.90799 4.5 2.91488 4.5C2.92177 4.5 2.92866 4.5 2.93556 4.5C2.94246 4.5 2.94937 4.5 2.95629 4.5C2.9632 4.5 2.97012 4.5 2.97705 4.5C2.98398 4.5 2.99091 4.5 2.99786 4.5C3.0048 4.5 3.01174 4.5 3.0187 4.5C3.02565 4.5 3.03261 4.5 3.03958 4.5C3.04655 4.5 3.05352 4.5 3.0605 4.5C3.06748 4.5 3.07446 4.5 3.08145 4.5C3.08845 4.5 3.09544 4.5 3.10245 4.5C3.10945 4.5 3.11646 4.5 3.12348 4.5C3.1305 4.5 3.13752 4.5 3.14455 4.5C3.15157 4.5 3.15861 4.5 3.16565 4.5C3.17269 4.5 3.17974 4.5 3.18679 4.5C3.19384 4.5 3.2009 4.5 3.20796 4.5C3.21503 4.5 3.2221 4.5 3.22917 4.5C3.23625 4.5 3.24333 4.5 3.25042 4.5C3.2575 4.5 3.2646 4.5 3.27169 4.5C3.27879 4.5 3.2859 4.5 3.29301 4.5C3.30012 4.5 3.30723 4.5 3.31435 4.5C3.32147 4.5 3.3286 4.5 3.33573 4.5C3.34286 4.5 3.35 4.5 3.35714 4.5C3.36428 4.5 3.37143 4.5 3.37859 4.5C3.38574 4.5 3.3929 4.5 3.40006 4.5C3.40723 4.5 3.41439 4.5 3.42157 4.5C3.42874 4.5 3.43592 4.5 3.44311 4.5C3.45029 4.5 3.45748 4.5 3.46468 4.5C3.47187 4.5 3.47907 4.5 3.48628 4.5C3.49348 4.5 3.50069 4.5 3.5079 4.5C3.51512 4.5 3.52234 4.5 3.52956 4.5C3.53679 4.5 3.54402 4.5 3.55125 4.5C3.55849 4.5 3.56573 4.5 3.57297 4.5C3.58021 4.5 3.58746 4.5 3.59472 4.5C3.60197 4.5 3.60923 4.5 3.61649 4.5C3.62375 4.5 3.63102 4.5 3.63829 4.5C3.64556 4.5 3.65284 4.5 3.66012 4.5C3.6674 4.5 3.67469 4.5 3.68198 4.5C3.68927 4.5 3.69656 4.5 3.70386 4.5C3.71116 4.5 3.71846 4.5 3.72577 4.5C3.73308 4.5 3.74039 4.5 3.7477 4.5C3.75502 4.5 3.76234 4.5 3.76966 4.5C3.77699 4.5 3.78432 4.5 3.79165 4.5C3.79898 4.5 3.80632 4.5 3.81366 4.5C3.821 4.5 3.82835 4.5 3.83569 4.5C3.84304 4.5 3.8504 4.5 3.85775 4.5C3.86511 4.5 3.87247 4.5 3.87983 4.5C3.8872 4.5 3.89457 4.5 3.90194 4.5C3.90931 4.5 3.91669 4.5 3.92407 4.5C3.93145 4.5 3.93883 4.5 3.94622 4.5C3.95361 4.5 3.961 4.5 3.96839 4.5C3.97579 4.5 3.98318 4.5 3.99059 4.5C3.99799 4.5 4.00539 4.5 4.0128 4.5C4.02021 4.5 4.02762 4.5 4.03504 4.5C4.04245 4.5 4.04987 4.5 4.05729 4.5C4.06472 4.5 4.07214 4.5 4.07957 4.5C4.087 4.5 4.09443 4.5 4.10187 4.5C4.1093 4.5 4.11674 4.5 4.12418 4.5C4.13163 4.5 4.13907 4.5 4.14652 4.5C4.15397 4.5 4.16142 4.5 4.16887 4.5C4.17633 4.5 4.18379 4.5 4.19125 4.5C4.19871 4.5 4.20617 4.5 4.21364 4.5C4.2211 4.5 4.22857 4.5 4.23604 4.5C4.24352 4.5 4.25099 4.5 4.25847 4.5C4.26595 4.5 4.27343 4.5 4.28091 4.5C4.28839 4.5 4.29588 4.5 4.30337 4.5C4.31086 4.5 4.31835 4.5 4.32584 4.5C4.33334 4.5 4.34083 4.5 4.34833 4.5C4.35583 4.5 4.36333 4.5 4.37084 4.5C4.37834 4.5 4.38585 4.5 4.39336 4.5C4.40086 4.5 4.40838 4.5 4.41589 4.5C4.4234 4.5 4.43092 4.5 4.43844 4.5C4.44596 4.5 4.45348 4.5 4.461 4.5C4.46852 4.5 4.47605 4.5 4.48357 4.5C4.4911 4.5 4.49863 4.5 4.50616 4.5C4.51369 4.5 4.52123 4.5 4.52876 4.5C4.5363 4.5 4.54384 4.5 4.55137 4.5C4.55891 4.5 4.56646 4.5 4.574 4.5C4.58154 4.5 4.58909 4.5 4.59664 4.5C4.60418 4.5 4.61173 4.5 4.61928 4.5C4.62683 4.5 4.63439 4.5 4.64194 4.5C4.64949 4.5 4.65705 4.5 4.66461 4.5C4.67216 4.5 4.67972 4.5 4.68729 4.5C4.69485 4.5 4.70241 4.5 4.70997 4.5C4.71754 4.5 4.7251 4.5 4.73267 4.5C4.74024 4.5 4.7478 4.5 4.75537 4.5C4.76294 4.5 4.77051 4.5 4.77809 4.5C4.78566 4.5 4.79323 4.5 4.80081 4.5C4.80838 4.5 4.81596 4.5 4.82354 4.5C4.83112 4.5 4.83869 4.5 4.84627 4.5C4.85385 4.5 4.86144 4.5 4.86902 4.5C4.8766 4.5 4.88418 4.5 4.89177 4.5C4.89935 4.5 4.90694 4.5 4.91452 4.5C4.92211 4.5 4.9297 4.5 4.93728 4.5C4.94487 4.5 4.95246 4.5 4.96005 4.5C4.96764 4.5 4.97523 4.5 4.98282 4.5C4.99041 4.5 4.99801 4.5 5.0056 4.5C5.01319 4.5 5.02079 4.5 5.02838 4.5C5.03597 4.5 5.04357 4.5 5.05116 4.5C5.05876 4.5 5.06636 4.5 5.07395 4.5C5.08155 4.5 5.08915 4.5 5.09674 4.5C5.10434 4.5 5.11194 4.5 5.11954 4.5C5.12713 4.5 5.13473 4.5 5.14233 4.5C5.14993 4.5 5.15753 4.5 5.16513 4.5C5.17273 4.5 5.18033 4.5 5.18793 4.5C5.19553 4.5 5.20313 4.5 5.21073 4.5C5.21833 4.5 5.22593 4.5 5.23353 4.5C5.24113 4.5 5.24873 4.5 5.25633 4.5C5.26393 4.5 5.27153 4.5 5.27913 4.5C5.28673 4.5 5.29434 4.5 5.30194 4.5C5.30954 4.5 5.31714 4.5 5.32474 4.5C5.33234 4.5 5.33994 4.5 5.34754 4.5C5.35513 4.5 5.36273 4.5 5.37033 4.5C5.37793 4.5 5.38553 4.5 5.39313 4.5C5.40073 4.5 5.40833 4.5 5.41592 4.5C5.42352 4.5 5.43112 4.5 5.43871 4.5C5.44631 4.5 5.45391 4.5 5.4615 4.5C5.4691 4.5 5.47669 4.5 5.48429 4.5C5.49188 4.5 5.49947 4.5 5.50707 4.5C5.51466 4.5 5.52225 4.5 5.52984 4.5C5.53744 4.5 5.54503 4.5 5.55262 4.5C5.56021 4.5 5.5678 4.5 5.57538 4.5C5.58297 4.5 5.59056 4.5 5.59815 4.5C5.60573 4.5 5.61332 4.5 5.6209 4.5C5.62849 4.5 5.63607 4.5 5.64365 4.5C5.65123 4.5 5.65882 4.5 5.6664 4.5C5.67398 4.5 5.68155 4.5 5.68913 4.5C5.69671 4.5 5.70429 4.5 5.71186 4.5C5.71944 4.5 5.72701 4.5 5.73458 4.5C5.74216 4.5 5.74973 4.5 5.7573 4.5C5.76487 4.5 5.77244 4.5 5.78 4.5C5.78757 4.5 5.79514 4.5 5.8027 4.5C5.81027 4.5 5.81783 4.5 5.82539 4.5C5.83295 4.5 5.84051 4.5 5.84807 4.5C5.85563 4.5 5.86318 4.5 5.87074 4.5C5.87829 4.5 5.88584 4.5 5.89339 4.5C5.90095 4.5 5.90849 4.5 5.91604 4.5C5.92359 4.5 5.93113 4.5 5.93868 4.5C5.94622 4.5 5.95376 4.5 5.9613 4.5C5.96884 4.5 5.97638 4.5 5.98392 4.5C5.99145 4.5 5.99899 4.5 6.00652 4.5C6.01405 4.5 6.02158 4.5 6.02911 4.5C6.03663 4.5 6.04416 4.5 6.05168 4.5C6.05921 4.5 6.06673 4.5 6.07425 4.5C6.08176 4.5 6.08928 4.5 6.09679 4.5C6.10431 4.5 6.11182 4.5 6.11933 4.5C6.12684 4.5 6.13435 4.5 6.14185 4.5C6.14935 4.5 6.15686 4.5 6.16436 4.5C6.17186 4.5 6.17935 4.5 6.18685 4.5C6.19434 4.5 6.20183 4.5 6.20932 4.5C6.21681 4.5 6.2243 4.5 6.23178 4.5C6.23926 4.5 6.24674 4.5 6.25422 4.5C6.2617 4.5 6.26918 4.5 6.27665 4.5C6.28412 4.5 6.29159 4.5 6.29906 4.5C6.30652 4.5 6.31399 4.5 6.32145 4.5C6.32891 4.5 6.33637 4.5 6.34382 4.5C6.35128 4.5 6.35873 4.5 6.36618 4.5C6.37363 4.5 6.38107 4.5 6.38851 4.5C6.39596 4.5 6.4034 4.5 6.41083 4.5C6.41827 4.5 6.4257 4.5 6.43313 4.5C6.44056 4.5 6.44799 4.5 6.45541 4.5C6.46283 4.5 6.47025 4.5 6.47767 4.5C6.48508 4.5 6.4925 4.5 6.49991 4.5C6.50731 4.5 6.51472 4.5 6.52212 4.5C6.52952 4.5 6.53692 4.5 6.54432 4.5C6.55171 4.5 6.5591 4.5 6.56649 4.5C6.57388 4.5 6.58126 4.5 6.58864 4.5C6.59603 4.5 6.6034 4.5 6.61077 4.5C6.61815 4.5 6.62552 4.5 6.63288 4.5C6.64025 4.5 6.64761 4.5 6.65496 4.5C6.66232 4.5 6.66968 4.5 6.67702 4.5C6.68437 4.5 6.69172 4.5 6.69906 4.5C6.7064 4.5 6.71374 4.5 6.72107 4.5C6.72841 4.5 6.73574 4.5 6.74306 4.5C6.75039 4.5 6.75771 4.5 6.76502 4.5C6.77234 4.5 6.77965 4.5 6.78696 4.5C6.79427 4.5 6.80157 4.5 6.80887 4.5C6.81617 4.5 6.82346 4.5 6.83075 4.5C6.83805 4.5 6.84533 4.5 6.85261 4.5C6.85989 4.5 6.86717 4.5 6.87444 4.5C6.88172 4.5 6.88898 4.5 6.89625 4.5C6.90351 4.5 6.91077 4.5 6.91802 4.5C6.92528 4.5 6.93253 4.5 6.93977 4.5C6.94702 4.5 6.95426 4.5 6.96149 4.5C6.96873 4.5 6.97596 4.5 6.98318 4.5C6.99041 4.5 6.99763 4.5 7.00484 4.5C7.01206 4.5 7.01927 4.5 7.02647 4.5C7.03368 4.5 7.04088 4.5 7.04808 4.5C7.05527 4.5 7.06246 4.5 7.06965 4.5C7.07683 4.5 7.08401 4.5 7.09119 4.5C7.09836 4.5 7.10553 4.5 7.1127 4.5C7.11986 4.5 7.12702 4.5 7.13418 4.5C7.14133 4.5 7.14848 4.5 7.15562 4.5C7.16276 4.5 7.1699 4.5 7.17703 4.5C7.18417 4.5 7.19129 4.5 7.19842 4.5C7.20554 4.5 7.21265 4.5 7.21976 4.5C7.22687 4.5 7.23398 4.5 7.24108 4.5C7.24818 4.5 7.25527 4.5 7.26236 4.5C7.26945 4.5 7.27653 4.5 7.28361 4.5C7.29068 4.5 7.29775 4.5 7.30482 4.5C7.31188 4.5 7.31894 4.5 7.32599 4.5C7.33305 4.5 7.34009 4.5 7.34714 4.5C7.35418 4.5 7.36121 4.5 7.36824 4.5C7.37527 4.5 7.38229 4.5 7.38931 4.5C7.39633 4.5 7.40334 4.5 7.41034 4.5C7.41735 4.5 7.42435 4.5 7.43134 4.5C7.43833 4.5 7.44532 4.5 7.4523 4.5C7.45928 4.5 7.46625 4.5 7.47322 4.5C7.48019 4.5 7.48715 4.5 7.49411 4.5C7.50106 4.5 7.50801 4.5 7.51495 4.5C7.52189 4.5 7.52883 4.5 7.53576 4.5C7.54269 4.5 7.54961 4.5 7.55652 4.5C7.56344 4.5 7.57035 4.5 7.57725 4.5C7.58416 4.5 7.59105 4.5 7.59794 4.5C7.60483 4.5 7.61171 4.5 7.61859 4.5C7.62546 4.5 7.63233 4.5 7.63919 4.5C7.64606 4.5 7.65291 4.5 7.65976 4.5C7.66661 4.5 7.67345 4.5 7.68029 4.5C7.68712 4.5 7.69395 4.5 7.70077 4.5C7.70759 4.5 7.7144 4.5 7.72121 4.5C7.72802 4.5 7.73482 4.5 7.74161 4.5C7.7484 4.5 7.75518 4.5 7.76196 4.5C7.76874 4.5 7.77551 4.5 7.78227 4.5C7.78904 4.5 7.79579 4.5 7.80254 4.5C7.80929 4.5 7.81603 4.5 7.82277 4.5C7.8295 4.5 7.83623 4.5 7.84295 4.5C7.84966 4.5 7.85638 4.5 7.86308 4.5C7.86978 4.5 7.87648 4.5 7.88317 4.5C7.88986 4.5 7.89654 4.5 7.90321 4.5C7.90989 4.5 7.91655 4.5 7.92321 4.5C7.92987 4.5 7.93652 4.5 7.94316 4.5C7.94981 4.5 7.95644 4.5 7.96307 4.5C7.9697 4.5 7.97632 4.5 7.98293 4.5C7.98954 4.5 7.99614 4.5 8.00274 4.5C8.00933 4.5 8.01592 4.5 8.0225 4.5C8.02908 4.5 8.03565 4.5 8.04221 4.5C8.04878 4.5 8.05533 4.5 8.06188 4.5C8.06843 4.5 8.07496 4.5 8.0815 4.5C8.08803 4.5 8.09455 4.5 8.10106 4.5C8.10758 4.5 8.11408 4.5 8.12058 4.5C8.12708 4.5 8.13357 4.5 8.14005 4.5C8.14653 4.5 8.153 4.5 8.15946 4.5C8.16593 4.5 8.17238 4.5 8.17883 4.5C8.18528 4.5 8.19171 4.5 8.19814 4.5C8.20457 4.5 8.21099 4.5 8.21741 4.5C8.22382 4.5 8.23022 4.5 8.23662 4.5C8.24301 4.5 8.2494 4.5 8.25578 4.5C8.26215 4.5 8.26852 4.5 8.27488 4.5C8.28124 4.5 8.28759 4.5 8.29393 4.5C8.30027 4.5 8.30661 4.5 8.31293 4.5C8.31925 4.5 8.32557 4.5 8.33188 4.5C8.33818 4.5 8.34448 4.5 8.35077 4.5C8.35705 4.5 8.36333 4.5 8.3696 4.5C8.37587 4.5 8.38213 4.5 8.38838 4.5C8.39463 4.5 8.40088 4.5 8.40711 4.5C8.41334 4.5 8.41956 4.5 8.42578 4.5C8.43199 4.5 8.4382 4.5 8.44439 4.5C8.45058 4.5 8.45677 4.5 8.46295 4.5C8.46912 4.5 8.47529 4.5 8.48145 4.5C8.4876 4.5 8.49375 4.5 8.49989 4.5C8.50603 4.5 8.51215 4.5 8.51827 4.5C8.52439 4.5 8.5305 4.5 8.5366 4.5C8.5427 4.5 8.54879 4.5 8.55487 4.5C8.56094 4.5 8.56701 4.5 8.57307 4.5C8.57913 4.5 8.58518 4.5 8.59122 4.5C8.59726 4.5 8.60329 4.5 8.60931 4.5C8.61533 4.5 8.62134 4.5 8.62734 4.5C8.63334 4.5 8.63933 4.5 8.64531 4.5C8.65129 4.5 8.65726 4.5 8.66322 4.5C8.66918 4.5 8.67513 4.5 8.68107 4.5C8.68701 4.5 8.69294 4.5 8.69885 4.5C8.70477 4.5 8.71068 4.5 8.71658 4.5C8.72248 4.5 8.72836 4.5 8.73424 4.5C8.74012 4.5 8.74598 4.5 8.75184 4.5C8.75769 4.5 8.76354 4.5 8.76937 4.5C8.77521 4.5 8.78103 4.5 8.78685 4.5C8.79266 4.5 8.79846 4.5 8.80425 4.5C8.81005 4.5 8.81583 4.5 8.8216 4.5C8.82737 4.5 8.83313 4.5 8.83888 4.5C8.84463 4.5 8.85037 4.5 8.85609 4.5C8.86182 4.5 8.86754 4.5 8.87324 4.5C8.87895 4.5 8.88464 4.5 8.89033 4.5C8.89601 4.5 8.90168 4.5 8.90734 4.5C8.913 4.5 8.91866 4.5 8.92429 4.5C8.92993 4.5 8.93556 4.5 8.94118 4.5L8.94118 3.5C8.93556 3.5 8.92993 3.5 8.92429 3.5C8.91866 3.5 8.913 3.5 8.90734 3.5C8.90168 3.5 8.89601 3.5 8.89033 3.5C8.88464 3.5 8.87895 3.5 8.87324 3.5C8.86754 3.5 8.86182 3.5 8.85609 3.5C8.85037 3.5 8.84463 3.5 8.83888 3.5C8.83313 3.5 8.82737 3.5 8.8216 3.5C8.81583 3.5 8.81005 3.5 8.80425 3.5C8.79846 3.5 8.79266 3.5 8.78685 3.5C8.78103 3.5 8.77521 3.5 8.76937 3.5C8.76354 3.5 8.75769 3.5 8.75184 3.5C8.74598 3.5 8.74012 3.5 8.73424 3.5C8.72836 3.5 8.72248 3.5 8.71658 3.5C8.71068 3.5 8.70477 3.5 8.69885 3.5C8.69294 3.5 8.68701 3.5 8.68107 3.5C8.67513 3.5 8.66918 3.5 8.66322 3.5C8.65726 3.5 8.65129 3.5 8.64531 3.5C8.63933 3.5 8.63334 3.5 8.62734 3.5C8.62134 3.5 8.61533 3.5 8.60931 3.5C8.60329 3.5 8.59726 3.5 8.59122 3.5C8.58518 3.5 8.57913 3.5 8.57307 3.5C8.56701 3.5 8.56094 3.5 8.55487 3.5C8.54879 3.5 8.5427 3.5 8.5366 3.5C8.5305 3.5 8.52439 3.5 8.51827 3.5C8.51215 3.5 8.50603 3.5 8.49989 3.5C8.49375 3.5 8.4876 3.5 8.48145 3.5C8.47529 3.5 8.46912 3.5 8.46295 3.5C8.45677 3.5 8.45058 3.5 8.44439 3.5C8.4382 3.5 8.43199 3.5 8.42578 3.5C8.41956 3.5 8.41334 3.5 8.40711 3.5C8.40088 3.5 8.39463 3.5 8.38838 3.5C8.38213 3.5 8.37587 3.5 8.3696 3.5C8.36333 3.5 8.35705 3.5 8.35077 3.5C8.34448 3.5 8.33818 3.5 8.33188 3.5C8.32557 3.5 8.31925 3.5 8.31293 3.5C8.30661 3.5 8.30027 3.5 8.29393 3.5C8.28759 3.5 8.28124 3.5 8.27488 3.5C8.26852 3.5 8.26215 3.5 8.25578 3.5C8.2494 3.5 8.24301 3.5 8.23662 3.5C8.23022 3.5 8.22382 3.5 8.21741 3.5C8.21099 3.5 8.20457 3.5 8.19814 3.5C8.19171 3.5 8.18528 3.5 8.17883 3.5C8.17238 3.5 8.16593 3.5 8.15946 3.5C8.153 3.5 8.14653 3.5 8.14005 3.5C8.13357 3.5 8.12708 3.5 8.12058 3.5C8.11408 3.5 8.10758 3.5 8.10106 3.5C8.09455 3.5 8.08803 3.5 8.0815 3.5C8.07496 3.5 8.06843 3.5 8.06188 3.5C8.05533 3.5 8.04878 3.5 8.04221 3.5C8.03565 3.5 8.02908 3.5 8.0225 3.5C8.01592 3.5 8.00933 3.5 8.00274 3.5C7.99614 3.5 7.98954 3.5 7.98293 3.5C7.97631 3.5 7.9697 3.5 7.96307 3.5C7.95644 3.5 7.94981 3.5 7.94316 3.5C7.93652 3.5 7.92987 3.5 7.92321 3.5C7.91655 3.5 7.90989 3.5 7.90321 3.5C7.89654 3.5 7.88986 3.5 7.88317 3.5C7.87648 3.5 7.86978 3.5 7.86308 3.5C7.85638 3.5 7.84966 3.5 7.84295 3.5C7.83623 3.5 7.8295 3.5 7.82277 3.5C7.81603 3.5 7.80929 3.5 7.80254 3.5C7.79579 3.5 7.78904 3.5 7.78227 3.5C7.77551 3.5 7.76874 3.5 7.76196 3.5C7.75518 3.5 7.7484 3.5 7.74161 3.5C7.73482 3.5 7.72802 3.5 7.72121 3.5C7.7144 3.5 7.70759 3.5 7.70077 3.5C7.69395 3.5 7.68712 3.5 7.68029 3.5C7.67345 3.5 7.66661 3.5 7.65976 3.5C7.65291 3.5 7.64606 3.5 7.63919 3.5C7.63233 3.5 7.62546 3.5 7.61859 3.5C7.61171 3.5 7.60483 3.5 7.59794 3.5C7.59105 3.5 7.58416 3.5 7.57725 3.5C7.57035 3.5 7.56344 3.5 7.55652 3.5C7.54961 3.5 7.54269 3.5 7.53576 3.5C7.52883 3.5 7.52189 3.5 7.51495 3.5C7.50801 3.5 7.50106 3.5 7.49411 3.5C7.48715 3.5 7.48019 3.5 7.47322 3.5C7.46625 3.5 7.45928 3.5 7.4523 3.5C7.44532 3.5 7.43833 3.5 7.43134 3.5C7.42435 3.5 7.41735 3.5 7.41034 3.5C7.40334 3.5 7.39633 3.5 7.38931 3.5C7.38229 3.5 7.37527 3.5 7.36824 3.5C7.36121 3.5 7.35418 3.5 7.34714 3.5C7.34009 3.5 7.33305 3.5 7.32599 3.5C7.31894 3.5 7.31188 3.5 7.30482 3.5C7.29775 3.5 7.29068 3.5 7.28361 3.5C7.27653 3.5 7.26945 3.5 7.26236 3.5C7.25527 3.5 7.24818 3.5 7.24108 3.5C7.23398 3.5 7.22687 3.5 7.21976 3.5C7.21265 3.5 7.20554 3.5 7.19842 3.5C7.19129 3.5 7.18417 3.5 7.17703 3.5C7.1699 3.5 7.16276 3.5 7.15562 3.5C7.14848 3.5 7.14133 3.5 7.13418 3.5C7.12702 3.5 7.11986 3.5 7.1127 3.5C7.10553 3.5 7.09836 3.5 7.09119 3.5C7.08401 3.5 7.07683 3.5 7.06965 3.5C7.06246 3.5 7.05527 3.5 7.04808 3.5C7.04088 3.5 7.03368 3.5 7.02647 3.5C7.01927 3.5 7.01206 3.5 7.00484 3.5C6.99763 3.5 6.99041 3.5 6.98318 3.5C6.97596 3.5 6.96873 3.5 6.96149 3.5C6.95426 3.5 6.94702 3.5 6.93977 3.5C6.93253 3.5 6.92528 3.5 6.91802 3.5C6.91077 3.5 6.90351 3.5 6.89625 3.5C6.88898 3.5 6.88172 3.5 6.87444 3.5C6.86717 3.5 6.85989 3.5 6.85261 3.5C6.84533 3.5 6.83805 3.5 6.83075 3.5C6.82346 3.5 6.81617 3.5 6.80887 3.5C6.80157 3.5 6.79427 3.5 6.78696 3.5C6.77965 3.5 6.77234 3.5 6.76502 3.5C6.75771 3.5 6.75039 3.5 6.74306 3.5C6.73574 3.5 6.72841 3.5 6.72107 3.5C6.71374 3.5 6.7064 3.5 6.69906 3.5C6.69172 3.5 6.68437 3.5 6.67702 3.5C6.66968 3.5 6.66232 3.5 6.65496 3.5C6.64761 3.5 6.64025 3.5 6.63288 3.5C6.62552 3.5 6.61815 3.5 6.61077 3.5C6.6034 3.5 6.59602 3.5 6.58864 3.5C6.58126 3.5 6.57388 3.5 6.56649 3.5C6.5591 3.5 6.55171 3.5 6.54432 3.5C6.53692 3.5 6.52952 3.5 6.52212 3.5C6.51472 3.5 6.50731 3.5 6.49991 3.5C6.4925 3.5 6.48508 3.5 6.47767 3.5C6.47025 3.5 6.46283 3.5 6.45541 3.5C6.44799 3.5 6.44056 3.5 6.43313 3.5C6.4257 3.5 6.41827 3.5 6.41083 3.5C6.4034 3.5 6.39596 3.5 6.38851 3.5C6.38107 3.5 6.37363 3.5 6.36618 3.5C6.35873 3.5 6.35128 3.5 6.34382 3.5C6.33637 3.5 6.32891 3.5 6.32145 3.5C6.31399 3.5 6.30652 3.5 6.29906 3.5C6.29159 3.5 6.28412 3.5 6.27665 3.5C6.26918 3.5 6.2617 3.5 6.25422 3.5C6.24674 3.5 6.23926 3.5 6.23178 3.5C6.2243 3.5 6.21681 3.5 6.20932 3.5C6.20183 3.5 6.19434 3.5 6.18685 3.5C6.17935 3.5 6.17186 3.5 6.16436 3.5C6.15686 3.5 6.14935 3.5 6.14185 3.5C6.13435 3.5 6.12684 3.5 6.11933 3.5C6.11182 3.5 6.10431 3.5 6.09679 3.5C6.08928 3.5 6.08176 3.5 6.07425 3.5C6.06673 3.5 6.05921 3.5 6.05168 3.5C6.04416 3.5 6.03663 3.5 6.02911 3.5C6.02158 3.5 6.01405 3.5 6.00652 3.5C5.99899 3.5 5.99145 3.5 5.98392 3.5C5.97638 3.5 5.96884 3.5 5.9613 3.5C5.95376 3.5 5.94622 3.5 5.93868 3.5C5.93113 3.5 5.92359 3.5 5.91604 3.5C5.90849 3.5 5.90095 3.5 5.89339 3.5C5.88584 3.5 5.87829 3.5 5.87074 3.5C5.86318 3.5 5.85563 3.5 5.84807 3.5C5.84051 3.5 5.83295 3.5 5.82539 3.5C5.81783 3.5 5.81027 3.5 5.8027 3.5C5.79514 3.5 5.78757 3.5 5.78 3.5C5.77244 3.5 5.76487 3.5 5.7573 3.5C5.74973 3.5 5.74216 3.5 5.73458 3.5C5.72701 3.5 5.71944 3.5 5.71186 3.5C5.70429 3.5 5.69671 3.5 5.68913 3.5C5.68155 3.5 5.67398 3.5 5.6664 3.5C5.65882 3.5 5.65123 3.5 5.64365 3.5C5.63607 3.5 5.62849 3.5 5.6209 3.5C5.61332 3.5 5.60573 3.5 5.59815 3.5C5.59056 3.5 5.58297 3.5 5.57538 3.5C5.5678 3.5 5.56021 3.5 5.55262 3.5C5.54503 3.5 5.53744 3.5 5.52984 3.5C5.52225 3.5 5.51466 3.5 5.50707 3.5C5.49947 3.5 5.49188 3.5 5.48429 3.5C5.47669 3.5 5.4691 3.5 5.4615 3.5C5.45391 3.5 5.44631 3.5 5.43871 3.5C5.43112 3.5 5.42352 3.5 5.41592 3.5C5.40833 3.5 5.40073 3.5 5.39313 3.5C5.38553 3.5 5.37793 3.5 5.37033 3.5C5.36273 3.5 5.35513 3.5 5.34754 3.5C5.33994 3.5 5.33234 3.5 5.32474 3.5C5.31714 3.5 5.30954 3.5 5.30194 3.5C5.29434 3.5 5.28673 3.5 5.27913 3.5C5.27153 3.5 5.26393 3.5 5.25633 3.5C5.24873 3.5 5.24113 3.5 5.23353 3.5C5.22593 3.5 5.21833 3.5 5.21073 3.5C5.20313 3.5 5.19553 3.5 5.18793 3.5C5.18033 3.5 5.17273 3.5 5.16513 3.5C5.15753 3.5 5.14993 3.5 5.14233 3.5C5.13473 3.5 5.12713 3.5 5.11954 3.5C5.11194 3.5 5.10434 3.5 5.09674 3.5C5.08915 3.5 5.08155 3.5 5.07395 3.5C5.06636 3.5 5.05876 3.5 5.05116 3.5C5.04357 3.5 5.03597 3.5 5.02838 3.5C5.02079 3.5 5.01319 3.5 5.0056 3.5C4.99801 3.5 4.99041 3.5 4.98282 3.5C4.97523 3.5 4.96764 3.5 4.96005 3.5C4.95246 3.5 4.94487 3.5 4.93728 3.5C4.9297 3.5 4.92211 3.5 4.91452 3.5C4.90694 3.5 4.89935 3.5 4.89177 3.5C4.88418 3.5 4.8766 3.5 4.86902 3.5C4.86144 3.5 4.85385 3.5 4.84627 3.5C4.83869 3.5 4.83112 3.5 4.82354 3.5C4.81596 3.5 4.80838 3.5 4.80081 3.5C4.79323 3.5 4.78566 3.5 4.77809 3.5C4.77051 3.5 4.76294 3.5 4.75537 3.5C4.7478 3.5 4.74024 3.5 4.73267 3.5C4.7251 3.5 4.71754 3.5 4.70997 3.5C4.70241 3.5 4.69485 3.5 4.68729 3.5C4.67972 3.5 4.67216 3.5 4.66461 3.5C4.65705 3.5 4.64949 3.5 4.64194 3.5C4.63439 3.5 4.62683 3.5 4.61928 3.5C4.61173 3.5 4.60418 3.5 4.59664 3.5C4.58909 3.5 4.58154 3.5 4.574 3.5C4.56646 3.5 4.55891 3.5 4.55137 3.5C4.54384 3.5 4.5363 3.5 4.52876 3.5C4.52123 3.5 4.51369 3.5 4.50616 3.5C4.49863 3.5 4.4911 3.5 4.48357 3.5C4.47605 3.5 4.46852 3.5 4.461 3.5C4.45348 3.5 4.44596 3.5 4.43844 3.5C4.43092 3.5 4.4234 3.5 4.41589 3.5C4.40838 3.5 4.40086 3.5 4.39336 3.5C4.38585 3.5 4.37834 3.5 4.37084 3.5C4.36333 3.5 4.35583 3.5 4.34833 3.5C4.34083 3.5 4.33334 3.5 4.32584 3.5C4.31835 3.5 4.31086 3.5 4.30337 3.5C4.29588 3.5 4.28839 3.5 4.28091 3.5C4.27343 3.5 4.26595 3.5 4.25847 3.5C4.25099 3.5 4.24352 3.5 4.23604 3.5C4.22857 3.5 4.2211 3.5 4.21364 3.5C4.20617 3.5 4.19871 3.5 4.19125 3.5C4.18379 3.5 4.17633 3.5 4.16887 3.5C4.16142 3.5 4.15397 3.5 4.14652 3.5C4.13907 3.5 4.13163 3.5 4.12418 3.5C4.11674 3.5 4.1093 3.5 4.10187 3.5C4.09443 3.5 4.087 3.5 4.07957 3.5C4.07214 3.5 4.06472 3.5 4.05729 3.5C4.04987 3.5 4.04245 3.5 4.03504 3.5C4.02762 3.5 4.02021 3.5 4.0128 3.5C4.00539 3.5 3.99799 3.5 3.99059 3.5C3.98318 3.5 3.97579 3.5 3.96839 3.5C3.961 3.5 3.95361 3.5 3.94622 3.5C3.93883 3.5 3.93145 3.5 3.92407 3.5C3.91669 3.5 3.90931 3.5 3.90194 3.5C3.89457 3.5 3.8872 3.5 3.87983 3.5C3.87247 3.5 3.86511 3.5 3.85775 3.5C3.8504 3.5 3.84304 3.5 3.83569 3.5C3.82835 3.5 3.821 3.5 3.81366 3.5C3.80632 3.5 3.79898 3.5 3.79165 3.5C3.78432 3.5 3.77699 3.5 3.76966 3.5C3.76234 3.5 3.75502 3.5 3.7477 3.5C3.74039 3.5 3.73308 3.5 3.72577 3.5C3.71846 3.5 3.71116 3.5 3.70386 3.5C3.69656 3.5 3.68927 3.5 3.68198 3.5C3.67469 3.5 3.6674 3.5 3.66012 3.5C3.65284 3.5 3.64556 3.5 3.63829 3.5C3.63102 3.5 3.62375 3.5 3.61649 3.5C3.60923 3.5 3.60197 3.5 3.59472 3.5C3.58746 3.5 3.58021 3.5 3.57297 3.5C3.56573 3.5 3.55849 3.5 3.55125 3.5C3.54402 3.5 3.53679 3.5 3.52956 3.5C3.52234 3.5 3.51512 3.5 3.5079 3.5C3.50069 3.5 3.49348 3.5 3.48628 3.5C3.47907 3.5 3.47187 3.5 3.46468 3.5C3.45748 3.5 3.45029 3.5 3.44311 3.5C3.43592 3.5 3.42874 3.5 3.42157 3.5C3.41439 3.5 3.40723 3.5 3.40006 3.5C3.3929 3.5 3.38574 3.5 3.37859 3.5C3.37143 3.5 3.36428 3.5 3.35714 3.5C3.35 3.5 3.34286 3.5 3.33573 3.5C3.3286 3.5 3.32147 3.5 3.31435 3.5C3.30723 3.5 3.30012 3.5 3.29301 3.5C3.2859 3.5 3.27879 3.5 3.27169 3.5C3.2646 3.5 3.2575 3.5 3.25042 3.5C3.24333 3.5 3.23625 3.5 3.22917 3.5C3.2221 3.5 3.21503 3.5 3.20796 3.5C3.2009 3.5 3.19384 3.5 3.18679 3.5C3.17974 3.5 3.17269 3.5 3.16565 3.5C3.15861 3.5 3.15157 3.5 3.14455 3.5C3.13752 3.5 3.1305 3.5 3.12348 3.5C3.11646 3.5 3.10945 3.5 3.10245 3.5C3.09544 3.5 3.08845 3.5 3.08145 3.5C3.07446 3.5 3.06748 3.5 3.0605 3.5C3.05352 3.5 3.04655 3.5 3.03958 3.5C3.03261 3.5 3.02565 3.5 3.0187 3.5C3.01174 3.5 3.0048 3.5 2.99786 3.5C2.99091 3.5 2.98398 3.5 2.97705 3.5C2.97012 3.5 2.9632 3.5 2.95629 3.5C2.94937 3.5 2.94246 3.5 2.93556 3.5C2.92866 3.5 2.92177 3.5 2.91488 3.5C2.90799 3.5 2.90111 3.5 2.89423 3.5C2.88736 3.5 2.88049 3.5 2.87363 3.5C2.86677 3.5 2.85991 3.5 2.85307 3.5C2.84622 3.5 2.83938 3.5 2.83254 3.5C2.82571 3.5 2.81888 3.5 2.81206 3.5C2.80524 3.5 2.79843 3.5 2.79163 3.5C2.78482 3.5 2.77802 3.5 2.77123 3.5C2.76444 3.5 2.75766 3.5 2.75088 3.5C2.7441 3.5 2.73733 3.5 2.73057 3.5C2.72381 3.5 2.71705 3.5 2.71031 3.5C2.70356 3.5 2.69682 3.5 2.69008 3.5C2.68335 3.5 2.67663 3.5 2.66991 3.5C2.66319 3.5 2.65648 3.5 2.64978 3.5C2.64307 3.5 2.63638 3.5 2.62969 3.5C2.623 3.5 2.61632 3.5 2.60965 3.5C2.60298 3.5 2.59631 3.5 2.58966 3.5C2.583 3.5 2.57635 3.5 2.56971 3.5C2.56307 3.5 2.55643 3.5 2.54981 3.5C2.54318 3.5 2.53656 3.5 2.52995 3.5C2.52334 3.5 2.51674 3.5 2.51014 3.5C2.50355 3.5 2.49696 3.5 2.49039 3.5C2.48381 3.5 2.47724 3.5 2.47067 3.5C2.46411 3.5 2.45756 3.5 2.45101 3.5C2.44447 3.5 2.43793 3.5 2.4314 3.5C2.42487 3.5 2.41835 3.5 2.41184 3.5C2.40532 3.5 2.39882 3.5 2.39232 3.5C2.38583 3.5 2.37934 3.5 2.37286 3.5C2.36638 3.5 2.35991 3.5 2.35345 3.5C2.34698 3.5 2.34053 3.5 2.33408 3.5C2.32764 3.5 2.3212 3.5 2.31477 3.5C2.30834 3.5 2.30192 3.5 2.29551 3.5C2.2891 3.5 2.2827 3.5 2.27631 3.5C2.26991 3.5 2.26353 3.5 2.25715 3.5C2.25078 3.5 2.24441 3.5 2.23805 3.5C2.23169 3.5 2.22534 3.5 2.219 3.5C2.21266 3.5 2.20633 3.5 2.20001 3.5C2.19368 3.5 2.18737 3.5 2.18107 3.5C2.17476 3.5 2.16847 3.5 2.16218 3.5C2.15589 3.5 2.14962 3.5 2.14335 3.5C2.13708 3.5 2.13082 3.5 2.12457 3.5C2.11832 3.5 2.11208 3.5 2.10585 3.5C2.09962 3.5 2.0934 3.5 2.08719 3.5C2.08097 3.5 2.07477 3.5 2.06858 3.5C2.06238 3.5 2.0562 3.5 2.05002 3.5C2.04385 3.5 2.03768 3.5 2.03153 3.5C2.02537 3.5 2.01923 3.5 2.01309 3.5C2.00695 3.5 2.00083 3.5 1.99471 3.5C1.98859 3.5 1.98249 3.5 1.97639 3.5C1.97029 3.5 1.9642 3.5 1.95813 3.5C1.95205 3.5 1.94598 3.5 1.93992 3.5C1.93386 3.5 1.92781 3.5 1.92178 3.5C1.91574 3.5 1.90971 3.5 1.90369 3.5C1.89767 3.5 1.89166 3.5 1.88567 3.5C1.87967 3.5 1.87368 3.5 1.8677 3.5C1.86172 3.5 1.85575 3.5 1.8498 3.5C1.84384 3.5 1.83789 3.5 1.83195 3.5C1.82602 3.5 1.82009 3.5 1.81417 3.5C1.80825 3.5 1.80235 3.5 1.79645 3.5C1.79056 3.5 1.78467 3.5 1.7788 3.5C1.77292 3.5 1.76706 3.5 1.7612 3.5C1.75535 3.5 1.7495 3.5 1.74367 3.5C1.73784 3.5 1.73201 3.5 1.7262 3.5C1.72039 3.5 1.71459 3.5 1.7088 3.5C1.70301 3.5 1.69723 3.5 1.69146 3.5C1.68569 3.5 1.67993 3.5 1.67418 3.5C1.66844 3.5 1.6627 3.5 1.65697 3.5C1.65125 3.5 1.64553 3.5 1.63983 3.5C1.63412 3.5 1.62843 3.5 1.62275 3.5C1.61707 3.5 1.6114 3.5 1.60574 3.5C1.60008 3.5 1.59443 3.5 1.58879 3.5C1.58315 3.5 1.57753 3.5 1.57191 3.5C1.5663 3.5 1.56069 3.5 1.5551 3.5C1.54951 3.5 1.54393 3.5 1.53836 3.5C1.53279 3.5 1.52723 3.5 1.52168 3.5C1.51613 3.5 1.5106 3.5 1.50507 3.5C1.49955 3.5 1.49403 3.5 1.48853 3.5C1.48303 3.5 1.47754 3.5 1.47206 3.5C1.46658 3.5 1.46112 3.5 1.45566 3.5C1.45021 3.5 1.44476 3.5 1.43933 3.5C1.4339 3.5 1.42848 3.5 1.42307 3.5C1.41766 3.5 1.41227 3.5 1.40688 3.5C1.4015 3.5 1.39612 3.5 1.39076 3.5C1.3854 3.5 1.38005 3.5 1.37472 3.5C1.36938 3.5 1.36406 3.5 1.35874 3.5C1.35343 3.5 1.34813 3.5 1.34284 3.5C1.33755 3.5 1.33227 3.5 1.32701 3.5C1.32175 3.5 1.31649 3.5 1.31125 3.5C1.30601 3.5 1.30078 3.5 1.29557 3.5C1.29035 3.5 1.28515 3.5 1.27996 3.5C1.27477 3.5 1.26959 3.5 1.26442 3.5C1.25926 3.5 1.2541 3.5 1.24896 3.5C1.24382 3.5 1.23869 3.5 1.23358 3.5C1.22846 3.5 1.22336 3.5 1.21826 3.5C1.21317 3.5 1.20809 3.5 1.20303 3.5C1.19796 3.5 1.19291 3.5 1.18787 3.5C1.18283 3.5 1.1778 3.5 1.17279 3.5C1.16777 3.5 1.16277 3.5 1.15778 3.5C1.15279 3.5 1.14781 3.5 1.14285 3.5C1.13789 3.5 1.13294 3.5 1.128 3.5C1.12306 3.5 1.11814 3.5 1.11322 3.5C1.10831 3.5 1.10341 3.5 1.09853 3.5C1.09364 3.5 1.08877 3.5 1.08391 3.5C1.07905 3.5 1.07421 3.5 1.06938 3.5C1.06454 3.5 1.05972 3.5 1.05492 3.5C1.05011 3.5 1.04532 3.5 1.04054 3.5C1.03576 3.5 1.03099 3.5 1.02624 3.5C1.02149 3.5 1.01675 3.5 1.01202 3.5C1.0073 3.5 1.00259 3.5 0.997887 3.5C0.993188 3.5 0.988503 3.5 0.983831 3.5C0.97916 3.5 0.974502 3.5 0.969858 3.5C0.965214 3.5 0.960583 3.5 0.955966 3.5C0.95135 3.5 0.946747 3.5 0.942157 3.5C0.937568 3.5 0.932993 3.5 0.928431 3.5C0.92387 3.5 0.919322 3.5 0.914789 3.5C0.910255 3.5 0.905735 3.5 0.901229 3.5C0.896724 3.5 0.892232 3.5 0.887754 3.5C0.883277 3.5 0.878813 3.5 0.874363 3.5C0.869914 3.5 0.865479 3.5 0.861057 3.5C0.856636 3.5 0.852229 3.5 0.847837 3.5C0.843444 3.5 0.839065 3.5 0.834701 3.5C0.830337 3.5 0.825987 3.5 0.821652 3.5C0.817316 3.5 0.812995 3.5 0.808689 3.5C0.804382 3.5 0.80009 3.5 0.795812 3.5C0.791535 3.5 0.787271 3.5 0.783023 3.5C0.778774 3.5 0.77454 3.5 0.770321 3.5C0.766102 3.5 0.761897 3.5 0.757707 3.5C0.753517 3.5 0.749341 3.5 0.745181 3.5C0.74102 3.5 0.736874 3.5 0.732743 3.5C0.728612 3.5 0.724496 3.5 0.720395 3.5C0.716294 3.5 0.712207 3.5 0.708136 3.5C0.704064 3.5 0.700008 3.5 0.695966 3.5C0.691925 3.5 0.687898 3.5 0.683887 3.5C0.679876 3.5 0.675879 3.5 0.671898 3.5C0.667917 3.5 0.663951 3.5 0.66 3.5C0.656049 3.5 0.652114 3.5 0.648193 3.5C0.644273 3.5 0.640368 3.5 0.636478 3.5C0.632588 3.5 0.628714 3.5 0.624855 3.5C0.620996 3.5 0.617152 3.5 0.613324 3.5C0.609496 3.5 0.605683 3.5 0.601886 3.5C0.598089 3.5 0.594307 3.5 0.590541 3.5C0.586775 3.5 0.583025 3.5 0.57929 3.5C0.575555 3.5 0.571836 3.5 0.568132 3.5C0.564429 3.5 0.560741 3.5 0.557069 3.5C0.553397 3.5 0.549741 3.5 0.5461 3.5C0.54246 3.5 0.538835 3.5 0.535227 3.5C0.531618 3.5 0.528025 3.5 0.524448 3.5C0.520872 3.5 0.517311 3.5 0.513766 3.5C0.510221 3.5 0.506693 3.5 0.50318 3.5C0.499667 3.5 0.496171 3.5 0.49269 3.5C0.48921 3.5 0.485746 3.5 0.482297 3.5C0.478849 3.5 0.475418 3.5 0.472002 3.5C0.468587 3.5 0.465187 3.5 0.461804 3.5C0.458421 3.5 0.455055 3.5 0.451705 3.5C0.448355 3.5 0.445021 3.5 0.441703 3.5C0.438386 3.5 0.435085 3.5 0.431801 3.5C0.428517 3.5 0.425249 3.5 0.421998 3.5C0.418747 3.5 0.415512 3.5 0.412294 3.5C0.409076 3.5 0.405875 3.5 0.402691 3.5C0.399506 3.5 0.396338 3.5 0.393187 3.5C0.390037 3.5 0.386902 3.5 0.383785 3.5C0.380668 3.5 0.377567 3.5 0.374484 3.5C0.3714 3.5 0.368333 3.5 0.365284 3.5C0.362234 3.5 0.359201 3.5 0.356186 3.5C0.35317 3.5 0.350171 3.5 0.34719 3.5C0.344208 3.5 0.341244 3.5 0.338297 3.5C0.335349 3.5 0.332419 3.5 0.329506 3.5C0.326594 3.5 0.323698 3.5 0.32082 3.5C0.317941 3.5 0.31508 3.5 0.312237 3.5C0.309393 3.5 0.306567 3.5 0.303758 3.5C0.300949 3.5 0.298158 3.5 0.295384 3.5C0.29261 3.5 0.289853 3.5 0.287114 3.5C0.284375 3.5 0.281654 3.5 0.27895 3.5C0.276246 3.5 0.27356 3.5 0.270892 3.5C0.268223 3.5 0.265572 3.5 0.262939 3.5C0.260306 3.5 0.257691 3.5 0.255093 3.5C0.252496 3.5 0.249916 3.5 0.247354 3.5C0.244792 3.5 0.242248 3.5 0.239722 3.5C0.237196 3.5 0.234688 3.5 0.232198 3.5C0.229708 3.5 0.227236 3.5 0.224781 3.5C0.222327 3.5 0.219891 3.5 0.217473 3.5C0.215055 3.5 0.212656 3.5 0.210274 3.5C0.207892 3.5 0.205529 3.5 0.203184 3.5C0.200839 3.5 0.198512 3.5 0.196203 3.5C0.193894 3.5 0.191604 3.5 0.189332 3.5C0.18706 3.5 0.184806 3.5 0.182571 3.5C0.180336 3.5 0.178119 3.5 0.175921 3.5C0.173723 3.5 0.171543 3.5 0.169382 3.5C0.167221 3.5 0.165078 3.5 0.162954 3.5C0.16083 3.5 0.158725 3.5 0.156638 3.5C0.154552 3.5 0.152484 3.5 0.150435 3.5C0.148385 3.5 0.146355 3.5 0.144343 3.5C0.142332 3.5 0.140339 3.5 0.138365 3.5C0.136391 3.5 0.134436 3.5 0.1325 3.5C0.130563 3.5 0.128646 3.5 0.126748 3.5C0.12485 3.5 0.122971 3.5 0.121111 3.5C0.11925 3.5 0.117409 3.5 0.115588 3.5C0.113766 3.5 0.111963 3.5 0.110179 3.5C0.108396 3.5 0.106631 3.5 0.104886 3.5C0.103141 3.5 0.101415 3.5 0.0997086 3.5C0.098002 3.5 0.0963148 3.5 0.094647 3.5C0.0929791 3.5 0.0913307 3.5 0.0897017 3.5C0.0880727 3.5 0.0864631 3.5 0.0848731 3.5C0.083283 3.5 0.0817125 3.5 0.0801615 3.5C0.0786106 3.5 0.0770792 3.5 0.0755675 3.5C0.0740557 3.5 0.0725636 3.5 0.0710912 3.5C0.0696188 3.5 0.0681661 3.5 0.0667332 3.5C0.0653003 3.5 0.0638871 3.5 0.0624938 3.5C0.0611004 3.5 0.0597269 3.5 0.0583733 3.5C0.0570197 3.5 0.055686 3.5 0.0543722 3.5C0.0530584 3.5 0.0517646 3.5 0.0504908 3.5C0.0492171 3.5 0.0479633 3.5 0.0467296 3.5C0.0454959 3.5 0.0442823 3.5 0.0430888 3.5C0.0418954 3.5 0.0407221 3.5 0.039569 3.5C0.0384159 3.5 0.037283 3.5 0.0361703 3.5C0.0350577 3.5 0.0339654 3.5 0.0328933 3.5C0.0318213 3.5 0.0307696 3.5 0.0297384 3.5C0.0287071 3.5 0.0276962 3.5 0.0267058 3.5C0.0257154 3.5 0.0247454 3.5 0.023796 3.5C0.0228465 3.5 0.0219176 3.5 0.0210093 3.5C0.020101 3.5 0.0192133 3.5 0.0183462 3.5C0.0174791 3.5 0.0166327 3.5 0.015807 3.5C0.0149813 3.5 0.0141763 3.5 0.0133921 3.5C0.0126079 3.5 0.0118445 3.5 0.0111019 3.5C0.0103593 3.5 0.00963754 3.5 0.0089367 3.5C0.00823586 3.5 0.00755593 3.5 0.00689697 3.5C0.006238 3.5 0.00560001 3.5 0.00498305 3.5C0.00436608 3.5 0.00377015 3.5 0.00319532 3.5C0.00262049 3.5 0.00206675 3.5 0.00153417 3.5C0.00100159 3.5 0.000490174 3.5 -2.18557e-08 3.5L2.18557e-08 4.5Z" fill="white"/>
</svg>
