<svg width="163" height="51" viewBox="0 0 163 51" fill="none" xmlns="http://www.w3.org/2000/svg">
<path d="M1.1206 44.1101C0.311319 42.4298 -0.0700135 40.5755 0.0105651 38.7121C0.0911437 36.8488 0.631132 35.0343 1.58244 33.4302C6.63008 24.5874 11.7429 15.7609 16.8449 6.96151C17.084 6.54845 17.3176 6.12995 17.5675 5.72232C18.4322 4.24018 19.6181 2.97083 21.038 2.00767C22.4579 1.04451 24.0755 0.412051 25.772 0.156831C27.9581 -0.205178 30.2021 0.0625392 32.2418 0.92871C34.2815 1.79488 36.0327 3.22374 37.2908 5.04838C37.6005 5.48862 37.8613 5.95603 38.1276 6.41801C43.3002 15.3714 48.4746 24.3301 53.6508 33.2943C54.5937 34.9121 55.1367 36.7318 55.2347 38.6018C55.3327 40.4719 54.983 42.3383 54.2145 44.0459C53.446 45.7534 52.281 47.2528 50.8164 48.4191C49.3518 49.5855 47.63 50.3852 45.7941 50.7517C44.13 51.1026 42.4089 51.0813 40.7539 50.6895C39.0989 50.2977 37.5509 49.5451 36.2205 48.4853C36.1183 48.4113 36.022 48.3295 35.9325 48.2407C35.1234 47.4459 34.2094 46.7656 33.2158 46.2189L33.6178 46.2787C34.0122 46.3384 34.4134 46.3384 34.8078 46.2787C35.6456 46.1156 36.3996 45.6633 36.9379 45.0006C37.4762 44.338 37.7646 43.5072 37.7527 42.6535C37.7527 35.164 37.7527 27.6781 37.7527 20.1959C37.7509 19.6253 37.6132 19.0635 37.3509 18.5569C37.0886 18.0503 36.7092 17.6136 36.2443 17.283C35.7795 16.9525 35.2425 16.7376 34.678 16.6562C34.1135 16.5749 33.5377 16.6294 32.9984 16.8153C32.5942 16.9676 32.2064 17.1606 31.8411 17.3914L18.589 25.082C16.7779 26.1436 14.945 27.198 13.0904 28.2452C12.6091 28.5049 12.1799 28.8513 11.8244 29.267C11.237 30.0044 10.9644 30.9442 11.0662 31.8817C11.168 32.8191 11.6357 33.6785 12.3678 34.2726C12.5851 34.4411 12.8187 34.5824 13.0415 34.7455C13.483 35.0496 13.85 35.4495 14.1153 35.9153C14.3807 36.3812 14.5374 36.9009 14.5737 37.4358C14.6289 38.2359 14.425 39.0325 13.9924 39.7077C13.1665 41.1208 12.346 42.5375 11.531 43.9579C11.033 44.8126 10.3331 45.532 9.49252 46.0532C8.65197 46.5744 7.69647 46.8814 6.70973 46.9474C5.72299 47.0134 4.73513 46.8363 3.83271 46.4317C2.93028 46.027 2.14084 45.4072 1.53354 44.6264C1.46291 44.5395 1.29447 44.2731 1.21297 44.2568L1.1206 44.1101Z" fill="url(#paint0_linear_273_2199)"/>
<path d="M0.881775 43.5286C1.06454 43.9106 1.28284 44.2745 1.53378 44.6156C2.14078 45.3986 2.93078 46.0206 3.83434 46.4267C4.73791 46.8328 5.72737 47.0106 6.71575 46.9446C7.70413 46.8786 8.66116 46.5707 9.50273 46.048C10.3443 45.5254 11.0446 44.8039 11.5421 43.9471C12.3571 42.5231 13.1776 41.1064 14.0035 39.6969C14.4361 39.0217 14.64 38.2251 14.5848 37.425C14.5456 36.8911 14.3865 36.3729 14.1193 35.9089C13.8522 35.445 13.4838 35.0474 13.0418 34.7455C12.819 34.5825 12.5854 34.4412 12.368 34.2727C11.636 33.6785 11.1682 32.8192 11.0664 31.8817C10.9647 30.9442 11.2372 30.0045 11.8247 29.267C12.1816 28.8572 12.6107 28.5164 13.0907 28.2615C14.9272 27.2144 16.76 26.16 18.5893 25.0983L31.8414 17.3914C32.2023 17.1538 32.5864 16.9535 32.9878 16.7936C33.5271 16.6077 34.1028 16.5532 34.6674 16.6346C35.2319 16.7159 35.7689 16.9308 36.2337 17.2613C36.6986 17.5919 37.0779 18.0286 37.3403 18.5352C37.6026 19.0418 37.7403 19.6037 37.7421 20.1742C37.7421 27.6564 37.7421 35.1423 37.7421 42.6318C37.7556 43.4905 37.4653 44.3263 36.9224 44.9917C36.3796 45.657 35.6191 46.109 34.7754 46.2678C34.381 46.3276 33.9799 46.3276 33.5855 46.2678L33.2052 46.1972C31.1439 45.1042 28.8051 44.6468 26.4841 44.8828C24.1631 45.1189 21.9641 46.0377 20.165 47.5233C19.7683 47.844 19.4152 48.219 19.0076 48.5288C17.5865 49.6126 15.9388 50.3608 14.1878 50.7175C12.4367 51.0743 10.6277 51.0302 8.89606 50.5887C8.53746 50.5452 3.74518 49.2082 1.41425 44.7352C1.21355 44.3436 1.03575 43.9407 0.881775 43.5286Z" fill="url(#paint1_linear_273_2199)"/>
<path d="M77.6662 25.8279C77.2091 26.5021 76.603 27.0515 75.8992 27.4296C75.1954 27.8076 74.4146 28.0032 73.623 27.9998C71.3381 27.9998 70 26.5535 70 24.2607C70 21.5899 71.9612 20.1689 75.3137 20.1689H77.415V20.0227C77.415 18.7226 76.4489 18.0071 74.4828 18.0071C73.2253 18.0074 71.9902 18.3551 70.9033 19.0149V15.946C72.2294 15.1698 73.7306 14.7782 75.2509 14.8122C79.3811 14.8122 81.0476 17.3923 81.0476 20.8592V27.7075H77.6662V25.8279ZM74.9659 25.0821C76.2557 25.0821 77.5261 24.2859 77.5261 23.1319V22.3357H75.1495C73.9466 22.3357 73.28 22.7943 73.28 23.7316C73.28 24.6689 73.8307 25.0821 74.9659 25.0821Z" fill="url(#paint2_linear_273_2199)"/>
<path d="M83.3899 21.4188C83.3899 17.71 85.8632 14.8175 88.9113 14.8175C90.1662 14.8545 91.3587 15.3962 92.2396 16.3292V10H96.0026V27.7077H92.6985V26.0952C92.2655 26.6532 91.7257 27.1109 91.1135 27.4389C90.5013 27.7669 89.8302 27.958 89.1432 28C85.9549 28 83.3899 25.2284 83.3899 21.4188ZM89.8822 24.5532C91.4039 24.5532 92.5584 23.1775 92.5584 21.444C92.5584 19.7105 91.4039 18.3348 89.8822 18.3348C88.3606 18.3348 87.2254 19.7105 87.2254 21.444C87.2254 23.1775 88.4041 24.5532 89.8822 24.5532Z" fill="url(#paint3_linear_273_2199)"/>
<path d="M97.5249 15.1097H101.752L104.36 23.5907L106.974 15.1097H111.22L106.235 27.7077H102.5L97.5249 15.1097Z" fill="url(#paint4_linear_273_2199)"/>
<path d="M119.441 25.828C118.985 26.5024 118.38 27.0521 117.677 27.4302C116.974 27.8084 116.194 28.0038 115.403 27.9999C113.113 27.9999 111.775 26.5536 111.775 24.2608C111.775 21.59 113.741 20.169 117.088 20.169H119.19V20.0229C119.19 18.7227 118.224 18.0072 116.258 18.0072C115 18.0075 113.765 18.3552 112.678 19.015V15.9461C114.004 15.1689 115.505 14.7774 117.026 14.8123C121.161 14.8123 122.822 17.3924 122.822 20.8594V27.7076H119.441V25.828ZM116.716 25.0822C118.011 25.0822 119.282 24.286 119.282 23.132V22.3358H116.905C115.702 22.3358 115.031 22.7944 115.031 23.7317C115.031 24.669 115.61 25.0822 116.716 25.0822Z" fill="url(#paint5_linear_273_2199)"/>
<path d="M131.663 18.2894C130.484 18.2894 129.653 19.2972 129.653 20.8644V27.7076H125.842V15.1097H129.552V17.2513C129.872 16.5033 130.399 15.872 131.065 15.4383C131.731 15.0047 132.506 14.7885 133.291 14.8174C135.856 14.8174 137.518 16.7222 137.518 19.9523V27.7076H133.706V20.8644C133.692 19.2519 132.933 18.2894 131.663 18.2894Z" fill="url(#paint6_linear_273_2199)"/>
<path d="M139.836 21.3987C139.832 20.5256 139.996 19.6605 140.317 18.8542C140.638 18.0479 141.11 17.3167 141.706 16.7035C142.302 16.0904 143.009 15.6077 143.786 15.2838C144.564 14.9599 145.395 14.8014 146.232 14.8175C147.299 14.809 148.359 15.0054 149.357 15.397V18.8186C148.553 18.5004 147.701 18.3299 146.841 18.3147C144.599 18.3147 143.488 19.6602 143.488 21.3735C143.488 23.0868 144.599 24.5029 146.87 24.5029C147.72 24.4872 148.561 24.3202 149.357 24.009V27.4306C148.364 27.8003 147.316 27.9878 146.261 27.9849C145.421 28.0052 144.586 27.8495 143.805 27.5271C143.024 27.2048 142.313 26.7223 141.714 26.1082C141.115 25.4941 140.641 24.7609 140.318 23.952C139.995 23.143 139.832 22.2748 139.836 21.3987Z" fill="url(#paint7_linear_273_2199)"/>
<path d="M151.198 21.615C151.198 17.7349 153.739 14.8172 157.318 14.8172C160.898 14.8172 162.999 17.4224 162.999 21.872C163.003 22.0572 162.995 22.2424 162.975 22.4264H154.671C154.763 23.7265 156.033 24.7897 158.091 24.7897C159.498 24.7945 160.877 24.3764 162.062 23.5854L162.086 26.8608C160.794 27.6115 159.338 28.002 157.859 27.9947C153.806 27.9997 151.198 25.3239 151.198 21.615ZM159.502 20.1688C159.275 18.7931 158.535 17.8054 157.168 17.8054C155.801 17.8054 154.975 18.7679 154.724 20.1688H159.502Z" fill="url(#paint8_linear_273_2199)"/>
<path d="M98.9477 35.6341C99.3035 35.6341 99.6223 35.7175 99.9042 35.8843C100.186 36.0512 100.406 36.2843 100.563 36.5836C100.724 36.8829 100.805 37.2289 100.805 37.6215C100.805 38.014 100.724 38.3624 100.563 38.6667C100.406 38.966 100.186 39.1991 99.9042 39.3659C99.6223 39.5328 99.3035 39.6162 98.9477 39.6162C98.6843 39.6162 98.4417 39.5622 98.2199 39.4543C98.0027 39.3463 97.8179 39.1893 97.6654 38.9832V41H97V35.6709H97.6377V36.2892C97.7855 36.0733 97.9727 35.9113 98.1991 35.8034C98.4255 35.6905 98.675 35.6341 98.9477 35.6341ZM98.8922 38.9979C99.1279 38.9979 99.3381 38.9415 99.5229 38.8286C99.7124 38.7108 99.8603 38.5489 99.9665 38.3428C100.077 38.1318 100.133 37.8913 100.133 37.6215C100.133 37.3516 100.077 37.1136 99.9665 36.9075C99.8603 36.6965 99.7124 36.5345 99.5229 36.4217C99.3381 36.3088 99.1279 36.2524 98.8922 36.2524C98.6612 36.2524 98.4509 36.3113 98.2615 36.429C98.0766 36.5419 97.9288 36.7014 97.8179 36.9075C97.7116 37.1136 97.6585 37.3516 97.6585 37.6215C97.6585 37.8913 97.7116 38.1318 97.8179 38.3428C97.9242 38.5489 98.072 38.7108 98.2615 38.8286C98.4509 38.9415 98.6612 38.9979 98.8922 38.9979Z" fill="url(#paint9_linear_273_2199)"/>
<path d="M102.362 36.326C102.478 36.1002 102.649 35.9285 102.875 35.8107C103.102 35.693 103.376 35.6341 103.7 35.6341V36.3186C103.663 36.3137 103.612 36.3113 103.547 36.3113C103.187 36.3113 102.903 36.4266 102.695 36.6572C102.492 36.8829 102.39 37.2068 102.39 37.6288V39.572H101.725V35.6709H102.362V36.326Z" fill="url(#paint10_linear_273_2199)"/>
<path d="M106.06 39.6162C105.695 39.6162 105.366 39.5303 105.075 39.3586C104.784 39.1868 104.555 38.9513 104.389 38.6519C104.227 38.3477 104.147 38.0042 104.147 37.6215C104.147 37.2387 104.227 36.8977 104.389 36.5983C104.555 36.2941 104.784 36.0585 105.075 35.8917C105.366 35.7199 105.695 35.6341 106.06 35.6341C106.425 35.6341 106.75 35.7199 107.037 35.8917C107.328 36.0585 107.554 36.2941 107.716 36.5983C107.882 36.8977 107.966 37.2387 107.966 37.6215C107.966 38.0042 107.882 38.3477 107.716 38.6519C107.554 38.9513 107.328 39.1868 107.037 39.3586C106.75 39.5303 106.425 39.6162 106.06 39.6162ZM106.06 38.9979C106.295 38.9979 106.505 38.9415 106.69 38.8286C106.88 38.7108 107.028 38.5489 107.134 38.3428C107.24 38.1318 107.293 37.8913 107.293 37.6215C107.293 37.3516 107.24 37.1136 107.134 36.9075C107.028 36.6965 106.88 36.5345 106.69 36.4217C106.505 36.3088 106.295 36.2524 106.06 36.2524C105.824 36.2524 105.611 36.3088 105.422 36.4217C105.237 36.5345 105.089 36.6965 104.978 36.9075C104.872 37.1136 104.819 37.3516 104.819 37.6215C104.819 37.8913 104.872 38.1318 104.978 38.3428C105.089 38.5489 105.237 38.7108 105.422 38.8286C105.611 38.9415 105.824 38.9979 106.06 38.9979Z" fill="url(#paint11_linear_273_2199)"/>
<path d="M112.351 34.1104V39.572H111.714V38.9537C111.566 39.1696 111.379 39.334 111.152 39.4469C110.926 39.5598 110.676 39.6162 110.404 39.6162C110.048 39.6162 109.729 39.5328 109.447 39.3659C109.165 39.1991 108.944 38.966 108.782 38.6667C108.625 38.3624 108.546 38.014 108.546 37.6215C108.546 37.2289 108.625 36.8829 108.782 36.5836C108.944 36.2843 109.165 36.0512 109.447 35.8843C109.729 35.7175 110.048 35.6341 110.404 35.6341C110.667 35.6341 110.91 35.688 111.132 35.796C111.353 35.8991 111.538 36.0536 111.686 36.2597V34.1104H112.351ZM110.459 38.9979C110.69 38.9979 110.901 38.9415 111.09 38.8286C111.279 38.7108 111.427 38.5489 111.534 38.3428C111.64 38.1318 111.693 37.8913 111.693 37.6215C111.693 37.3516 111.64 37.1136 111.534 36.9075C111.427 36.6965 111.279 36.5345 111.09 36.4217C110.901 36.3088 110.69 36.2524 110.459 36.2524C110.224 36.2524 110.011 36.3088 109.822 36.4217C109.637 36.5345 109.489 36.6965 109.378 36.9075C109.272 37.1136 109.219 37.3516 109.219 37.6215C109.219 37.8913 109.272 38.1318 109.378 38.3428C109.489 38.5489 109.637 38.7108 109.822 38.8286C110.011 38.9415 110.224 38.9979 110.459 38.9979Z" fill="url(#paint12_linear_273_2199)"/>
<path d="M117.034 35.6709V39.572H116.404V38.9832C116.27 39.1844 116.092 39.3414 115.87 39.4543C115.653 39.5622 115.415 39.6162 115.156 39.6162C114.666 39.6162 114.28 39.4739 113.999 39.1893C113.717 38.8998 113.576 38.4753 113.576 37.9159V35.6709H114.241V37.8349C114.241 38.2128 114.327 38.4998 114.498 38.6961C114.669 38.8875 114.913 38.9832 115.232 38.9832C115.583 38.9832 115.861 38.8703 116.064 38.6446C116.267 38.4189 116.369 38.0999 116.369 37.6877V35.6709H117.034Z" fill="url(#paint13_linear_273_2199)"/>
<path d="M119.902 39.6162C119.528 39.6162 119.193 39.5303 118.897 39.3586C118.606 39.1868 118.377 38.9513 118.211 38.6519C118.045 38.3477 117.961 38.0042 117.961 37.6215C117.961 37.2387 118.045 36.8977 118.211 36.5983C118.377 36.2941 118.606 36.0585 118.897 35.8917C119.193 35.7199 119.528 35.6341 119.902 35.6341C120.235 35.6341 120.531 35.7052 120.789 35.8475C121.053 35.9898 121.256 36.1959 121.399 36.4658L120.893 36.8118C120.778 36.6253 120.635 36.4855 120.464 36.3922C120.293 36.299 120.103 36.2524 119.895 36.2524C119.655 36.2524 119.438 36.3088 119.244 36.4217C119.054 36.5345 118.904 36.6965 118.793 36.9075C118.687 37.1136 118.634 37.3516 118.634 37.6215C118.634 37.8962 118.687 38.1392 118.793 38.3502C118.904 38.5563 119.054 38.7157 119.244 38.8286C119.438 38.9415 119.655 38.9979 119.895 38.9979C120.103 38.9979 120.293 38.9513 120.464 38.858C120.635 38.7648 120.778 38.625 120.893 38.4385L121.399 38.7771C121.256 39.047 121.053 39.2555 120.789 39.4027C120.531 39.545 120.235 39.6162 119.902 39.6162Z" fill="url(#paint14_linear_273_2199)"/>
<path d="M124.374 39.3438C124.277 39.4322 124.156 39.5009 124.013 39.5499C123.87 39.5941 123.722 39.6162 123.57 39.6162C123.2 39.6162 122.914 39.5107 122.71 39.2997C122.507 39.0887 122.405 38.7869 122.405 38.3943V36.2524H121.781V35.6709H122.405V34.817H123.071V35.6709H124.124V36.2524H123.071V38.3649C123.071 38.5759 123.119 38.7378 123.216 38.8507C123.318 38.9635 123.461 39.02 123.646 39.02C123.849 39.02 124.022 38.9586 124.166 38.836L124.374 39.3438Z" fill="url(#paint15_linear_273_2199)"/>
<path d="M125.178 35.6709H125.844V39.572H125.178V35.6709ZM125.511 34.9201C125.381 34.9201 125.273 34.8759 125.185 34.7876C125.102 34.6993 125.06 34.5913 125.06 34.4637C125.06 34.3361 125.102 34.2282 125.185 34.1399C125.273 34.0466 125.381 34 125.511 34C125.64 34 125.746 34.0442 125.83 34.1325C125.917 34.2159 125.961 34.3214 125.961 34.449C125.961 34.5815 125.917 34.6944 125.83 34.7876C125.746 34.8759 125.64 34.9201 125.511 34.9201Z" fill="url(#paint16_linear_273_2199)"/>
<path d="M128.687 39.6162C128.322 39.6162 127.994 39.5303 127.703 39.3586C127.412 39.1868 127.183 38.9513 127.017 38.6519C126.855 38.3477 126.774 38.0042 126.774 37.6215C126.774 37.2387 126.855 36.8977 127.017 36.5983C127.183 36.2941 127.412 36.0585 127.703 35.8917C127.994 35.7199 128.322 35.6341 128.687 35.6341C129.052 35.6341 129.378 35.7199 129.665 35.8917C129.956 36.0585 130.182 36.2941 130.344 36.5983C130.51 36.8977 130.593 37.2387 130.593 37.6215C130.593 38.0042 130.51 38.3477 130.344 38.6519C130.182 38.9513 129.956 39.1868 129.665 39.3586C129.378 39.5303 129.052 39.6162 128.687 39.6162ZM128.687 38.9979C128.923 38.9979 129.133 38.9415 129.318 38.8286C129.508 38.7108 129.655 38.5489 129.762 38.3428C129.868 38.1318 129.921 37.8913 129.921 37.6215C129.921 37.3516 129.868 37.1136 129.762 36.9075C129.655 36.6965 129.508 36.5345 129.318 36.4217C129.133 36.3088 128.923 36.2524 128.687 36.2524C128.452 36.2524 128.239 36.3088 128.05 36.4217C127.865 36.5345 127.717 36.6965 127.606 36.9075C127.5 37.1136 127.447 37.3516 127.447 37.6215C127.447 37.8913 127.5 38.1318 127.606 38.3428C127.717 38.5489 127.865 38.7108 128.05 38.8286C128.239 38.9415 128.452 38.9979 128.687 38.9979Z" fill="url(#paint17_linear_273_2199)"/>
<path d="M133.475 35.6341C133.942 35.6341 134.312 35.7788 134.584 36.0683C134.861 36.353 135 36.7725 135 37.327V39.572H134.335V37.408C134.335 37.0301 134.249 36.7455 134.078 36.5542C133.907 36.3628 133.662 36.2671 133.343 36.2671C132.983 36.2671 132.699 36.38 132.491 36.6057C132.283 36.8265 132.179 37.1455 132.179 37.5626V39.572H131.514V35.6709H132.151V36.2597C132.285 36.0585 132.466 35.904 132.692 35.796C132.923 35.688 133.184 35.6341 133.475 35.6341Z" fill="url(#paint18_linear_273_2199)"/>
<defs>
<linearGradient id="paint0_linear_273_2199" x1="39.9453" y1="4.71928" x2="-3.60688" y2="50.9682" gradientUnits="userSpaceOnUse">
<stop stop-color="#BDBDBD"/>
<stop offset="1" stop-color="white"/>
</linearGradient>
<linearGradient id="paint1_linear_273_2199" x1="5.80307" y1="52.2116" x2="37.7328" y2="33.8278" gradientUnits="userSpaceOnUse">
<stop stop-color="#3E3E3E"/>
<stop offset="1" stop-color="#696969"/>
</linearGradient>
<linearGradient id="paint2_linear_273_2199" x1="137.237" y1="11.6656" x2="131.384" y2="41.3081" gradientUnits="userSpaceOnUse">
<stop stop-color="#BDBDBD"/>
<stop offset="1" stop-color="white"/>
</linearGradient>
<linearGradient id="paint3_linear_273_2199" x1="137.237" y1="11.6656" x2="131.384" y2="41.3081" gradientUnits="userSpaceOnUse">
<stop stop-color="#BDBDBD"/>
<stop offset="1" stop-color="white"/>
</linearGradient>
<linearGradient id="paint4_linear_273_2199" x1="137.237" y1="11.6656" x2="131.384" y2="41.3081" gradientUnits="userSpaceOnUse">
<stop stop-color="#BDBDBD"/>
<stop offset="1" stop-color="white"/>
</linearGradient>
<linearGradient id="paint5_linear_273_2199" x1="137.237" y1="11.6656" x2="131.384" y2="41.3081" gradientUnits="userSpaceOnUse">
<stop stop-color="#BDBDBD"/>
<stop offset="1" stop-color="white"/>
</linearGradient>
<linearGradient id="paint6_linear_273_2199" x1="137.237" y1="11.6656" x2="131.384" y2="41.3081" gradientUnits="userSpaceOnUse">
<stop stop-color="#BDBDBD"/>
<stop offset="1" stop-color="white"/>
</linearGradient>
<linearGradient id="paint7_linear_273_2199" x1="137.237" y1="11.6656" x2="131.384" y2="41.3081" gradientUnits="userSpaceOnUse">
<stop stop-color="#BDBDBD"/>
<stop offset="1" stop-color="white"/>
</linearGradient>
<linearGradient id="paint8_linear_273_2199" x1="137.237" y1="11.6656" x2="131.384" y2="41.3081" gradientUnits="userSpaceOnUse">
<stop stop-color="#BDBDBD"/>
<stop offset="1" stop-color="white"/>
</linearGradient>
<linearGradient id="paint9_linear_273_2199" x1="124.473" y1="34.6477" x2="122.299" y2="46.2163" gradientUnits="userSpaceOnUse">
<stop stop-color="#BDBDBD"/>
<stop offset="1" stop-color="white"/>
</linearGradient>
<linearGradient id="paint10_linear_273_2199" x1="124.473" y1="34.6477" x2="122.299" y2="46.2163" gradientUnits="userSpaceOnUse">
<stop stop-color="#BDBDBD"/>
<stop offset="1" stop-color="white"/>
</linearGradient>
<linearGradient id="paint11_linear_273_2199" x1="124.473" y1="34.6477" x2="122.299" y2="46.2163" gradientUnits="userSpaceOnUse">
<stop stop-color="#BDBDBD"/>
<stop offset="1" stop-color="white"/>
</linearGradient>
<linearGradient id="paint12_linear_273_2199" x1="124.473" y1="34.6477" x2="122.299" y2="46.2163" gradientUnits="userSpaceOnUse">
<stop stop-color="#BDBDBD"/>
<stop offset="1" stop-color="white"/>
</linearGradient>
<linearGradient id="paint13_linear_273_2199" x1="124.473" y1="34.6477" x2="122.299" y2="46.2163" gradientUnits="userSpaceOnUse">
<stop stop-color="#BDBDBD"/>
<stop offset="1" stop-color="white"/>
</linearGradient>
<linearGradient id="paint14_linear_273_2199" x1="124.473" y1="34.6477" x2="122.299" y2="46.2163" gradientUnits="userSpaceOnUse">
<stop stop-color="#BDBDBD"/>
<stop offset="1" stop-color="white"/>
</linearGradient>
<linearGradient id="paint15_linear_273_2199" x1="124.473" y1="34.6477" x2="122.299" y2="46.2163" gradientUnits="userSpaceOnUse">
<stop stop-color="#BDBDBD"/>
<stop offset="1" stop-color="white"/>
</linearGradient>
<linearGradient id="paint16_linear_273_2199" x1="124.473" y1="34.6477" x2="122.299" y2="46.2163" gradientUnits="userSpaceOnUse">
<stop stop-color="#BDBDBD"/>
<stop offset="1" stop-color="white"/>
</linearGradient>
<linearGradient id="paint17_linear_273_2199" x1="124.473" y1="34.6477" x2="122.299" y2="46.2163" gradientUnits="userSpaceOnUse">
<stop stop-color="#BDBDBD"/>
<stop offset="1" stop-color="white"/>
</linearGradient>
<linearGradient id="paint18_linear_273_2199" x1="124.473" y1="34.6477" x2="122.299" y2="46.2163" gradientUnits="userSpaceOnUse">
<stop stop-color="#BDBDBD"/>
<stop offset="1" stop-color="white"/>
</linearGradient>
</defs>
</svg>
