<svg width="13" height="14" viewBox="0 0 13 14" fill="none" xmlns="http://www.w3.org/2000/svg">
<path d="M1.30869 8.368C1.30869 9.711 1.93769 10.204 2.92369 10.204C3.67169 10.204 4.19869 10 4.72569 9.592V8.861C4.30069 9.116 3.79069 9.371 3.28069 9.371C2.60069 9.371 2.32869 9.048 2.32869 8.385V3.387H4.47069V2.622H2.32869V0.565H1.80169L1.58069 1.619C1.42769 2.333 1.29169 2.656 0.611691 2.792L0.169691 2.877V3.387H1.30869V8.368ZM11.849 4.917C11.849 4.407 11.713 3.965 11.458 3.591C11.815 3.387 12.41 3.234 12.971 3.234V2.231C12.189 2.231 11.543 2.639 11.152 3.234C10.625 2.707 9.80896 2.418 8.85696 2.418C7.12296 2.418 5.88196 3.37 5.88196 4.917C5.88196 5.733 6.22196 6.396 6.79996 6.821C6.20496 7.127 5.76296 7.552 5.76296 8.181C5.76296 8.725 6.03496 9.184 6.71496 9.388C5.77996 9.592 5.15096 10.153 5.15096 11.054C5.15096 12.414 6.76596 13.094 8.72096 13.094C10.88 13.094 12.869 12.414 12.869 10.595C12.869 9.456 12.036 8.64 10.455 8.64H7.59896C6.88496 8.64 6.62996 8.402 6.62996 7.943C6.62996 7.552 6.93596 7.246 7.24196 7.093C7.70096 7.314 8.24496 7.416 8.85696 7.416C10.591 7.416 11.849 6.464 11.849 4.917ZM6.20496 10.799C6.20496 9.847 6.98696 9.558 7.88796 9.558H10.217C11.203 9.558 11.866 9.847 11.866 10.629C11.866 11.904 10.557 12.346 8.72096 12.346C7.24196 12.346 6.20496 11.887 6.20496 10.799ZM10.795 4.934C10.795 6.056 10.081 6.719 8.85696 6.719C7.66696 6.719 6.95296 6.056 6.95296 4.934C6.95296 3.795 7.66696 3.132 8.85696 3.132C10.081 3.132 10.795 3.795 10.795 4.934Z" fill="white"/>
</svg>
